<?xml version="1.0" encoding="utf-8"?>
<!-- Generator: Adobe Illustrator 26.3.1, SVG Export Plug-In . SVG Version: 6.00 Build 0)  -->
<svg version="1.1" xmlns="http://www.w3.org/2000/svg" xmlns:xlink="http://www.w3.org/1999/xlink" x="0px" y="0px"
	 viewBox="0 0 1919.06 1080" style="enable-background:new 0 0 1919.06 1080;" xml:space="preserve">
<style type="text/css">
	.st0{fill:#FE4D49;}
	.st1{fill:#FF4D49;}
	.st2{fill:#FFE663;}
	.st3{fill:#FFE650;}
	.st4{fill:#FF4D47;}
	.st5{fill:#FFE763;}
	.st6{fill:#F9E100;stroke:#000000;stroke-width:2;stroke-miterlimit:10;}
	.st7{fill:#8EE0E8;}
	.st8{fill:#FF7300;}
	.st9{fill:none;}
	.st10{display:none;}
	.st11{display:inline;}
	.st12{fill:#F9E100;stroke:#000000;stroke-width:2.697;stroke-miterlimit:10;}
</style>
<g id="Layer_1">
</g>
<g id="Слой_2">
	<g>
		<path class="st0" d="M928.35,740.84c-20.86-7.07-13.28-8.36-27.13,2.89c-13.85,11.25-28.33-1.43-22.95-3.75
			c5.38-2.32,12.65-15.57-3.69-16.23c-16.34-0.66-19.49,3.78-28.28,0.74c-8.79-3.03,15.08-5.84,1.95-8.76
			c-13.14-2.92-15.14,3.66-21.44,12.53c-6.3,8.87-25.93,7.21-31.62-2.44c-5.69-9.64,18.17-12.45,18.17-12.45s-10.99-4.06-0.46-17.4
			c10.53-13.33,13.11,1.83,28.36,2.52c15.25,0.69-6.87-12.88-1.6-19.55c5.27-6.67,18.37-4.84,18.37-4.84s-15.51-10.47-25.1-2.61
			c-9.59,7.87-15.34-3.95-9.01-11.73c0,0,6.21-12.13-13.25-7.27c0,0-28.85,20.35-13.68,17.77c15.17-2.57,1.57,18.46-16.75,25.47
			c-3.05,1.17,6.21-12.13-13.19-5.1c-19.4,7.04-18.52-0.6-7.16,17.6c11.36,18.2-28.42,36.66-49.26,30.67
			c-20.83-5.98-11.25-13.85,16.97-16.77c28.22-2.92,7.18-16.51-8.21-22.64c-15.4-6.12-3.83-21.67,2.58-26.19
			c6.41-4.52,12.05,2.95,12.05,2.95s-1.52-16.28-19.97-14.71c-18.46,1.57-12.31,28.62-23.07,33.25
			c-10.76,4.64-4.72-14.02,1.35-31.59c6.07-17.57-17.6-7.16-27.53-12.34c-9.93-5.18,11.62-13.36,11.62-13.36s-7.78-6.33-23.84,3.89
			c-16.06,10.21,12.56,22.52,9.73,38.92c-2.84,16.4-15.31-2.86-16.71-14.8c-1.4-11.93-20.98-11.42-17.63-8.24
			c3.35,3.18-27.39,34.46-47.42,17.57c-20.03-16.89-7.52-37.89,32.51-46.56c40.04-8.67,12.22-31.88,14.14-41.72
			c1.92-9.84,17.2-8.07,17.2-8.07s-13.34-10.53-29.56-6.84c-16.23,3.69,1.74,24.98-13.34,30.82c-15.08,5.84-16.51-7.18-9.01-11.73
			c7.5-4.55,0.49-22.87-5.12-29.25c-5.61-6.38-19.66-2.75-15.25-0.69c4.41,2.06,14.71,21.38,0.57,21.75
			c-14.14,0.37-1.43-13.02-13.22-6.18c-11.79,6.84-11.65,12.28-4.95,18.63c6.7,6.35-5.73,30.62-13.31,31.91
			c-7.58,1.29-10.21-16.06-3.69-16.23c6.52-0.17,7.38-8.9,0.34-28.3c-7.04-19.4-29.42-1.4-29.42-1.4s17.31-3.72,22.04,10.3
			c4.72,14.02-24.73,11.53-13.62,19.95c11.1,8.42-2.58,26.19-12.42,24.27c-9.84-1.92,5.12-12.11,5.12-12.11s-13.17-4.01-25.04-0.43
			c-11.88,3.58-18,18.97-18,18.97s18.49-0.49,30.82,13.34c12.33,13.82-21.35,15.8-32.34,11.73c-10.99-4.06,13.97-6.9,13.97-6.9
			s-6.75-8.53-26.1,0.68c-19.35,9.21-14.83,15.62-14.83,15.62s34.83,0.17,35.4,21.92c0.57,21.75-48.25,27.38-48.25,27.38
			c3.49,8.62-14.51,27.59-32.05,22.61c-17.54-4.98-6.07-23.78,4.75-26.24c10.82-2.46,16.86-21.12,16.86-21.12s-6.44,3.43-16.23,3.69
			c-9.79,0.26-11.16-10.59-5.81-14c5.35-3.41,19.6,0.57,19.6,0.57s6.35-6.7-13.45-14.88c-19.8-8.19-39.98,10.84-39.98,10.84
			s20.78,3.81,14.51,13.77c-6.27,9.96-58.47,11.33-51.12,42.7c0.13,0.56,4.24,8.58,4.7,9.16c3.65,4.54,9.85,11.92,22.52,11.92
			c15.23,0,33.72,4.35,27.2,10.88c-6.53,6.53-14.14,6.53-14.14,6.53s26.11,9.79,36.99-4.35c10.88-14.14,32.64-13.05,40.25-9.79
			c7.62,3.26,7.58,16.73,7.58,16.73s66.13-10.17,94.28,0c39.16,14.14,77.97,6.16,105.16-1.45c16.75-4.69,31.31-0.73,40.03,3
			c4.03,1.72,8.67,0.65,11.5-2.69c2.99-3.52,8.9-8.03,20.49-12.86c26.11-10.88,72.34,14.69,104.98,4.9
			c29.72-8.92,43.16-21.41,45.33-23.57c0.19-0.01,0.39-0.01,0.58-0.02c1.86,2.74,15.35,21.51,32.41,17.07
			c25.02-6.53,55.81-20.34,55.81-20.34S949.21,747.91,928.35,740.84z"/>
		<path class="st0" d="M588.82,659.23c0,0-5.44-14.14,3.26-16.32c8.7-2.18,13.05,6.53,13.05,6.53c7.61-5.44,10.88-14.14,19.58-14.14
			c8.7,0,8.7,0,8.7,0s-10.88,5.44-13.06,14.14c-2.18,8.7-2.86,17.69-10.88,11.97c-7.62-5.44-15.23-13.05-15.23-8.7
			C594.26,657.05,588.82,659.23,588.82,659.23z"/>
		<path class="st1" d="M649.66,614.88c0,0-9.37-14.06-1.34-14.73c8.03-0.67,18.75-6.03,14.73-11.38c0,0,8.03,4.02,6.03,8.7
			c-2.01,4.69-10.04,4.02-7.37,7.36c2.68,3.35,14.73,0,12.72-7.36c-2.01-7.36,8.7-10.04,8.7-10.04s-5.36,8.03-2.01,10.71
			c3.35,2.68,4.69,8.03-1.34,10.71c-6.03,2.68-20.08,1.34-18.08,6.69c2.01,5.36-16.74,6.69-16.74,6.69L649.66,614.88z"/>
		<path class="st0" d="M602.54,560.43c0,0,1.55-8.84-1.16-12.54c0,0,8.91,2.34,9.9-4.08c0.99-6.42,16.52-9.44,16.52-9.44
			s-0.91,7.2,3.64,5.2c0,0-2.41,8.13-7.33,6.21c-4.92-1.92-10.04,2.51-8.9,6.36c1.15,3.85-6.49-1.77-7.69,2.29
			C606.32,558.5,602.54,560.43,602.54,560.43z"/>
		<path class="st1" d="M640.46,560.08c0,0-3.86-7.55-9.28-6.26c0,0,12.69,0.41,12.03-6.65c-0.65-7.05,10.54-5.72,10.54-5.72
			s-7.55,3.86-4.83,7.56C651.63,552.72,640.46,560.08,640.46,560.08z"/>
		<path class="st1" d="M639.85,536.42c0,0-3.29-9.97,1.48-9.62c4.78,0.35,12.32-3.51,11.32-5.79c-1-2.28,5.58,8.97,0.09,9.48
			C647.25,530.99,639.85,536.42,639.85,536.42z"/>
		<path class="st1" d="M413.2,669.04c0,0-9.36-16.62-15.85-9.5c0,0,7.92-17.41,12.25-13.45c4.32,3.96,14.41,3.17,11.53-3.16
			c-2.88-6.33-4.32-9.5,5.04-12.66c9.36-3.16-1.44,5.54,2.16,7.12c3.6,1.58,12.97-2.37,12.97-7.91c0-5.54-4.32-6.33-4.32-6.33
			s3.6-3.16,8.64,2.38c5.04,5.54,5.04,5.54,5.04,5.54s-2.16,7.12-7.92,10.29c-5.76,3.17-14.41,1.58-14.41,7.91
			c0,6.33,7.92,3.17,7.92,3.17s-2.16,6.33,1.44,7.12c3.6,0.79,0,9.5-6.48,4.75c-6.48-4.75-11.53-5.54-10.09,0
			C422.56,669.83,413.2,669.04,413.2,669.04z"/>
		<path class="st0" d="M705.22,650.53c0,0-7.07-15.71-14.14-14.14c0,0,7.07-10.21,11-7.07c3.93,3.14,13.36,8.64,13.36,2.36
			c0-6.29,5.5-14.14,11-14.14c5.5,0,5.5,7.86,11,6.29c5.5-1.57,3.14-10.21,3.14-10.21s7.07,2.36,7.07,7.86s-10.21,14.93-15.71,10.21
			s-8.64,0-8.64,4.71c0,4.71,6.29,0.79,6.29,0.79s5.5,9.43-0.79,11c-6.29,1.57-14.14-9.43-14.14-3.93S707.58,650.53,705.22,650.53z"
			/>
		<path class="st1" d="M766.15,672.29c0,0-15.23-2.18-17.41,5.44c0,0-4.35-25.02,7.62-28.28c11.97-3.26,22.85-4.35,16.32-13.06
			c0,0,15.23,6.53,7.62,13.06c-7.62,6.53-18.49,2.17-19.58,8.7c-1.09,6.53,14.14,5.44,14.14,5.44S765.06,669.02,766.15,672.29z"/>
		<path class="st1" d="M793.34,645.09c0,0,0-8.7-5.44-11.97c0,0,13.05,1.09,13.05-6.53C800.96,626.59,806.4,640.74,793.34,645.09z"
			/>
		<path class="st0" d="M859.7,704.99c0,0,7.14,10.03,16.65,5.02c0,0-8.72-10.75,0-13.62C876.36,696.38,866.05,696.38,859.7,704.99z"
			/>
		<path class="st1" d="M886.67,705.7l-1.59-10.03c4.76-2.87,12.16,6.53,12.16,6.53C891.8,701.66,886.67,705.7,886.67,705.7z"/>
		<path class="st1" d="M879.29,689.15c-5.55,0-9.25,3.26-9.25,3.26l-1.61-3.19l7.14-9.32C880.32,679.9,879.29,689.15,879.29,689.15z
			"/>
		<path class="st1" d="M362.54,719.07c0,0-31.55,3.26-25.02,19.58c6.53,16.32,29.37,9.79,41.34,17.41
			c11.97,7.62,2.5,24.34,2.5,24.34s13.95,0.22,17.41-10.15c3.63-10.88,43.19-22.89,55.16-13.1c11.97,9.79,0,20.67,0,20.67
			s43.52-8.7,65.27-5.44c10.73,1.61,53.85,19.84,112.88,7.82c7.88-1.6,15.19-5.24,21.41-10.34c5.44-4.45,13.36-9.1,21.28-7.28
			c14.14,3.26,17.41,11.97,17.41,11.97s20.67-22.85,51.13-16.32c30.46,6.53,48.96,14.14,73.98,11.97
			c25.02-2.18,40.25-22.85,40.25-22.85s-25.02,17.41-35.9,9.79c-10.88-7.62-27.2-29.37-41.34-19.58c-14.14,9.79-5.44-19.58,8.7-27.2
			c0,0-23.25,6.94-29.37,23.93c-5.9,16.38-51.13,3.26-62.01,15.23c0,0-22.84-2.18-17.41-16.32c5.44-14.14,20.67-18.49,20.67-18.49
			s-26.11-13.05-33.72,3.26c-7.62,16.32-7.62,16.32-7.62,16.32s-21.76-11.97-17.41-29.37c4.35-17.41-10.88-33.72-10.88-33.72
			s3.26,14.14-3.26,21.76c-6.53,7.62-17.41,9.79-15.23,23.93c2.18,14.14,2.18,14.14,2.18,14.14s-15.23,0-21.76-18.49
			c-6.53-18.5-33.73-15.23-38.08-40.25c-4.35-25.02,4.35-34.81,21.76-41.34c17.41-6.53,42.43-8.7,45.69-19.58
			c3.26-10.88-2.18-15.23-2.18-15.23s-6.88,14.5-18.49,17.41c-8.7,2.18-21.76,4.35-21.76,4.35s-10.81,0.96-5.44-9.79
			c5.44-10.88,0-17.41,0-17.41s-14.14,11.97-13.06,29.37c0.62,9.83-26.11,10.88-25.02,25.02c1.09,14.14-20.67,9.79-27.2,2.18
			c0,0-7.62,7.62,3.26,13.06c10.88,5.44,23.93,16.32,17.41,25.02c-6.53,8.7-17.41-11.97-27.2-9.79c-9.79,2.18-19.58,8.7-19.58,8.7
			s23.93-1.09,20.67,9.79c-3.26,10.88-16.32,4.35-16.32,4.35s4.35,23.93,20.67,27.2c16.32,3.26-18.49,20.67-28.29,14.14
			c-9.79-6.53-33.59-15.62-44.6-1.09c-13.6,17.95-71.91,26.62-64.19-8.16c2.18-9.79,10.88-8.16,16.32-14.69
			c5.44-6.53-4.35-19.58-4.35-19.58s1.63,8.7-3.26,13.06C379.04,710.08,373.22,716.27,362.54,719.07z"/>
		<path class="st2" d="M559.45,766.93c0,0-23.93-9.79-21.76-34.81c2.18-25.02-29.37-18.49-29.37-18.49s3.26-8.7,13.05-10.88
			c9.79-2.17,17.41,0,17.41,0s7.62-13.05,3.26-19.58c-4.35-6.53,5.44-15.23,5.44-15.23s-1.21,11.09,3.26,16.32
			c6.53,7.62,13.06,17.41,6.53,22.85c-6.53,5.44,0,26.11,8.7,25.02c8.7-1.09,0-21.76,0-21.76s16.32,0,19.58,14.14
			c3.26,14.14-11.97,28.29,4.35,33.72c16.32,5.44,14.14-19.58,14.14-19.58S617.1,743,617.1,751.7c0,8.7,17.41,3.26,13.06-8.7
			c-4.35-11.97,2.17-35.9,2.17-35.9s0,29.37,8.7,31.55c8.7,2.18,0,18.49,0,18.49s10.88,4.35,14.14-5.44c0,0-3.26,17.41-20.67,20.67
			c-17.41,3.26-34.81,6.53-34.81,6.53S571.41,761.49,559.45,766.93z"/>
		<path class="st2" d="M519.19,749.53c-18.49,3.26-27.2,8.7-35.9,2.18c0,0,15.23,14.14,26.11,10.88
			c10.88-3.26,31.55,6.53,31.55,6.53S537.69,746.26,519.19,749.53z"/>
		<path class="st2" d="M362.54,728.86c0,0-18.49,1.09-13.06,7.62c5.44,6.53,23.93,10.88,23.93,10.88S353.84,737.56,362.54,728.86z"
			/>
		<path class="st2" d="M777.03,751.7c0,0,6.53-9.79,17.41-3.26c10.88,6.53,20.67,11.97,20.67,11.97s-9.79,0-19.58,1.09
			C785.73,762.58,777.03,751.7,777.03,751.7z"/>
		<path class="st1" d="M899.19,755.01l11.6-10.15c13.05,11.97,9.79-7.25,16.32,3.63C933.99,759.95,913.7,757.91,899.19,755.01z"/>
	</g>
	<g>
		<path class="st0" d="M909.19,748.21c20.86-7.07,13.28-8.36,27.13,2.89c13.85,11.25,28.33-1.43,22.95-3.75
			c-5.38-2.32-12.65-15.57,3.69-16.23c16.34-0.66,19.49,3.78,28.28,0.74c8.79-3.03-15.08-5.84-1.95-8.76
			c13.14-2.92,15.14,3.66,21.44,12.53c6.3,8.87,25.93,7.21,31.62-2.44c5.69-9.64-18.17-12.45-18.17-12.45s10.99-4.06,0.46-17.4
			c-10.53-13.34-13.11,1.83-28.36,2.52c-15.25,0.69,6.87-12.88,1.6-19.55c-5.27-6.67-18.38-4.84-18.38-4.84s15.51-10.47,25.1-2.61
			c9.59,7.87,15.34-3.95,9.02-11.73c0,0-6.21-12.13,13.25-7.27c0,0,28.85,20.35,13.68,17.77c-15.17-2.57-1.57,18.46,16.75,25.47
			c3.05,1.17-6.21-12.13,13.19-5.1c19.4,7.04,18.52-0.6,7.16,17.6c-11.36,18.2,28.42,36.66,49.26,30.67
			c20.83-5.98,11.25-13.85-16.97-16.77s-7.19-16.51,8.21-22.64c15.4-6.12,3.83-21.66-2.58-26.19c-6.41-4.52-12.05,2.95-12.05,2.95
			s1.52-16.28,19.97-14.71c18.46,1.57,12.31,28.62,23.07,33.25c10.76,4.64,4.72-14.02-1.35-31.59c-6.07-17.57,17.6-7.16,27.53-12.34
			c9.93-5.18-11.62-13.36-11.62-13.36s7.78-6.33,23.84,3.89c16.06,10.21-12.56,22.52-9.73,38.92c2.83,16.4,15.31-2.86,16.71-14.8
			c1.4-11.93,20.98-11.42,17.63-8.24c-3.35,3.18,27.39,34.46,47.42,17.57c20.03-16.89,7.52-37.89-32.52-46.56
			c-40.04-8.67-12.22-31.88-14.14-41.72c-1.92-9.84-17.2-8.07-17.2-8.07s13.33-10.53,29.56-6.84c16.23,3.69-1.74,24.98,13.34,30.82
			c15.08,5.84,16.51-7.18,9.01-11.73c-7.5-4.55-0.49-22.87,5.12-29.25c5.61-6.38,19.66-2.75,15.25-0.69
			c-4.41,2.06-14.71,21.38-0.57,21.75c14.14,0.37,1.43-13.02,13.22-6.18c11.79,6.84,11.65,12.28,4.95,18.63
			c-6.7,6.35,5.73,30.62,13.31,31.91c7.58,1.29,10.21-16.06,3.69-16.23c-6.52-0.17-7.38-8.9-0.35-28.3s29.42-1.4,29.42-1.4
			s-17.31-3.72-22.04,10.3c-4.72,14.02,24.73,11.53,13.62,19.95c-11.11,8.42,2.58,26.19,12.42,24.27
			c9.84-1.92-5.12-12.11-5.12-12.11s13.17-4.01,25.04-0.43c11.88,3.58,18,18.97,18,18.97s-18.49-0.49-30.82,13.34
			c-12.33,13.82,21.35,15.8,32.34,11.73c10.99-4.06-13.97-6.9-13.97-6.9s6.75-8.53,26.1,0.68c19.35,9.21,14.83,15.62,14.83,15.62
			s-34.83,0.17-35.4,21.92c-0.57,21.75,48.25,27.38,48.25,27.38c-3.49,8.62,14.51,27.59,32.05,22.61
			c17.54-4.98,6.07-23.78-4.75-26.24c-10.82-2.46-16.86-21.12-16.86-21.12s6.44,3.43,16.23,3.69c9.79,0.26,11.16-10.59,5.81-14
			c-5.35-3.41-19.6,0.57-19.6,0.57s-6.36-6.7,13.45-14.88c19.8-8.19,39.98,10.84,39.98,10.84s-20.78,3.81-14.51,13.77
			c6.27,9.96,58.47,11.33,51.12,42.7c-0.13,0.56-4.24,8.58-4.7,9.16c-3.65,4.55-9.85,11.92-22.52,11.92
			c-15.23,0-33.72,4.35-27.2,10.88s14.14,6.53,14.14,6.53s-26.11,9.79-36.99-4.35c-10.88-14.14-32.64-13.05-40.25-9.79
			c-7.62,3.26-7.57,16.73-7.57,16.73s-66.13-10.17-94.29,0c-39.16,14.14-77.96,6.16-105.16-1.45c-16.75-4.69-31.31-0.73-40.03,3
			c-4.03,1.72-8.67,0.65-11.5-2.69c-2.99-3.52-8.9-8.03-20.49-12.86c-26.11-10.88-72.35,14.69-104.98,4.9
			c-29.72-8.92-43.16-21.41-45.33-23.57c-0.19-0.01-0.39-0.01-0.58-0.02c-1.86,2.74-15.35,21.51-32.41,17.07
			c-25.02-6.53-55.81-20.34-55.81-20.34S888.33,755.29,909.19,748.21z"/>
		<path class="st0" d="M1248.72,666.61c0,0,5.44-14.14-3.26-16.32c-8.7-2.18-13.05,6.53-13.05,6.53
			c-7.61-5.44-10.88-14.14-19.58-14.14c-8.71,0-8.71,0-8.71,0s10.88,5.44,13.06,14.14c2.18,8.7,2.86,17.69,10.88,11.97
			c7.62-5.44,15.23-13.05,15.23-8.7C1243.28,664.43,1248.72,666.61,1248.72,666.61z"/>
		<path class="st1" d="M1187.89,622.26c0,0,9.37-14.06,1.34-14.73c-8.03-0.67-18.75-6.03-14.73-11.38c0,0-8.03,4.02-6.03,8.7
			c2.01,4.69,10.04,4.02,7.37,7.36c-2.68,3.35-14.73,0-12.72-7.36c2.01-7.36-8.7-10.04-8.7-10.04s5.36,8.03,2.01,10.71
			c-3.35,2.68-4.69,8.03,1.34,10.71c6.03,2.68,20.08,1.34,18.08,6.69c-2.01,5.36,16.74,6.69,16.74,6.69L1187.89,622.26z"/>
		<path class="st0" d="M1235,567.81c0,0-1.55-8.84,1.16-12.54c0,0-8.91,2.34-9.9-4.08c-0.99-6.42-16.52-9.44-16.52-9.44
			s0.91,7.2-3.64,5.2c0,0,2.41,8.13,7.33,6.21c4.92-1.92,10.04,2.51,8.9,6.36c-1.15,3.85,6.49-1.77,7.69,2.29
			C1231.23,565.88,1235,567.81,1235,567.81z"/>
		<path class="st1" d="M1197.09,567.46c0,0,3.86-7.55,9.28-6.26c0,0-12.69,0.41-12.03-6.65c0.65-7.05-10.54-5.72-10.54-5.72
			s7.55,3.86,4.83,7.56C1185.91,560.1,1197.09,567.46,1197.09,567.46z"/>
		<path class="st1" d="M1197.7,543.8c0,0,3.29-9.97-1.48-9.62c-4.78,0.35-12.32-3.51-11.32-5.79c1-2.28-5.58,8.97-0.09,9.48
			C1190.3,538.37,1197.7,543.8,1197.7,543.8z"/>
		<path class="st1" d="M1424.35,676.41c0,0,9.36-16.62,15.85-9.5c0,0-7.92-17.41-12.25-13.45c-4.32,3.96-14.41,3.17-11.53-3.17
			c2.88-6.33,4.32-9.5-5.04-12.66c-9.36-3.17,1.44,5.54-2.16,7.12c-3.6,1.58-12.97-2.37-12.97-7.91c0-5.54,4.32-6.33,4.32-6.33
			s-3.6-3.16-8.64,2.38c-5.04,5.54-5.04,5.54-5.04,5.54s2.16,7.12,7.93,10.29c5.76,3.17,14.41,1.58,14.41,7.91
			c0,6.33-7.92,3.17-7.92,3.17s2.16,6.33-1.44,7.12c-3.6,0.79,0,9.5,6.48,4.75c6.48-4.75,11.53-5.54,10.08,0
			C1414.98,677.21,1424.35,676.41,1424.35,676.41z"/>
		<path class="st0" d="M1132.32,657.91c0,0,7.07-15.71,14.14-14.14c0,0-7.07-10.21-11-7.07c-3.93,3.14-13.36,8.64-13.36,2.36
			c0-6.29-5.5-14.14-11-14.14s-5.5,7.86-11,6.29c-5.5-1.57-3.14-10.21-3.14-10.21s-7.07,2.36-7.07,7.86s10.21,14.93,15.71,10.21
			c5.5-4.71,8.64,0,8.64,4.71c0,4.71-6.29,0.79-6.29,0.79s-5.5,9.43,0.79,11c6.29,1.57,14.14-9.43,14.14-3.93
			S1129.96,657.91,1132.32,657.91z"/>
		<path class="st1" d="M1071.4,679.66c0,0,15.23-2.18,17.41,5.44c0,0,4.35-25.02-7.62-28.28c-11.97-3.26-22.85-4.35-16.32-13.06
			c0,0-15.23,6.53-7.62,13.06c7.62,6.53,18.49,2.17,19.58,8.7c1.09,6.53-14.14,5.44-14.14,5.44S1072.49,676.4,1071.4,679.66z"/>
		<path class="st1" d="M1044.2,652.47c0,0,0-8.7,5.44-11.97c0,0-13.05,1.09-13.05-6.53C1036.59,633.97,1031.15,648.11,1044.2,652.47
			z"/>
		<path class="st0" d="M977.84,712.36c0,0-7.14,10.03-16.65,5.02c0,0,8.72-10.75,0-13.62C961.19,703.76,971.5,703.76,977.84,712.36z
			"/>
		<path class="st1" d="M950.88,713.08l1.59-10.03c-4.76-2.87-12.16,6.53-12.16,6.53C945.75,709.04,950.88,713.08,950.88,713.08z"/>
		<path class="st1" d="M958.26,696.53c5.55,0,9.25,3.26,9.25,3.26l1.61-3.19l-7.14-9.32C957.22,687.28,958.26,696.53,958.26,696.53z
			"/>
		<path class="st1" d="M1475.01,726.44c0,0,31.55,3.26,25.02,19.58s-29.37,9.79-41.34,17.41c-11.97,7.62-2.5,24.34-2.5,24.34
			s-13.95,0.22-17.41-10.15c-3.63-10.88-43.19-22.89-55.16-13.1c-11.97,9.79,0,20.67,0,20.67s-43.52-8.7-65.27-5.44
			c-10.73,1.61-53.85,19.84-112.88,7.82c-7.88-1.6-15.19-5.24-21.41-10.34c-5.44-4.45-13.36-9.1-21.28-7.28
			c-14.14,3.26-17.41,11.97-17.41,11.97s-20.67-22.85-51.13-16.32c-30.46,6.53-48.96,14.14-73.98,11.97
			c-25.02-2.18-40.25-22.85-40.25-22.85s25.02,17.41,35.9,9.79c10.88-7.62,27.2-29.37,41.34-19.58c14.14,9.79,5.44-19.58-8.7-27.2
			c0,0,23.25,6.94,29.37,23.93c5.9,16.38,51.13,3.26,62.01,15.23c0,0,22.84-2.18,17.41-16.32c-5.44-14.14-20.67-18.49-20.67-18.49
			s26.11-13.05,33.72,3.26c7.62,16.32,7.62,16.32,7.62,16.32s21.76-11.97,17.41-29.37c-4.35-17.41,10.88-33.72,10.88-33.72
			s-3.27,14.14,3.26,21.76c6.53,7.62,17.4,9.79,15.23,23.93c-2.18,14.14-2.18,14.14-2.18,14.14s15.23,0,21.76-18.49
			c6.53-18.5,33.73-15.23,38.08-40.25c4.35-25.02-4.35-34.81-21.76-41.34c-17.41-6.53-42.43-8.7-45.69-19.58s2.18-15.23,2.18-15.23
			s6.88,14.5,18.49,17.41c8.7,2.18,21.76,4.35,21.76,4.35s10.81,0.96,5.44-9.79c-5.44-10.88,0-17.41,0-17.41
			s14.14,11.97,13.06,29.37c-0.62,9.83,26.11,10.88,25.02,25.02c-1.09,14.14,20.67,9.79,27.2,2.18c0,0,7.62,7.62-3.26,13.06
			c-10.88,5.44-23.93,16.32-17.41,25.02c6.53,8.7,17.41-11.97,27.2-9.79c9.79,2.18,19.58,8.7,19.58,8.7s-23.93-1.09-20.67,9.79
			c3.26,10.88,16.32,4.35,16.32,4.35s-4.35,23.93-20.67,27.2c-16.32,3.26,18.49,20.67,28.29,14.14c9.79-6.53,33.59-15.62,44.6-1.09
			c13.6,17.95,71.92,26.62,64.19-8.16c-2.18-9.79-10.88-8.16-16.32-14.69c-5.44-6.53,4.35-19.58,4.35-19.58s-1.63,8.7,3.26,13.06
			C1458.5,717.46,1464.33,723.65,1475.01,726.44z"/>
		<path class="st2" d="M1278.1,774.31c0,0,23.93-9.79,21.76-34.81c-2.18-25.02,29.37-18.49,29.37-18.49s-3.26-8.7-13.05-10.88
			c-9.79-2.17-17.41,0-17.41,0s-7.62-13.05-3.26-19.58c4.35-6.53-5.44-15.23-5.44-15.23s1.21,11.09-3.26,16.32
			c-6.53,7.62-13.06,17.41-6.53,22.85c6.53,5.44,0,26.11-8.7,25.02c-8.71-1.09,0-21.76,0-21.76s-16.32,0-19.58,14.14
			c-3.26,14.14,11.97,28.29-4.35,33.72c-16.32,5.44-14.14-19.58-14.14-19.58s-13.05,4.35-13.05,13.05c0,8.7-17.41,3.26-13.06-8.7
			s-2.17-35.9-2.17-35.9s0,29.37-8.71,31.55c-8.7,2.18,0,18.49,0,18.49s-10.88,4.35-14.14-5.44c0,0,3.26,17.41,20.67,20.67
			c17.41,3.26,34.81,6.53,34.81,6.53S1266.13,768.87,1278.1,774.31z"/>
		<path class="st2" d="M1318.35,756.9c18.49,3.26,27.2,8.7,35.9,2.18c0,0-15.23,14.14-26.11,10.88
			c-10.88-3.26-31.55,6.53-31.55,6.53S1299.86,753.64,1318.35,756.9z"/>
		<path class="st2" d="M1475.01,736.23c0,0,18.49,1.09,13.05,7.62c-5.44,6.53-23.93,10.88-23.93,10.88
			S1483.71,744.94,1475.01,736.23z"/>
		<path class="st2" d="M1060.52,759.08c0,0-6.53-9.79-17.4-3.26c-10.88,6.53-20.67,11.97-20.67,11.97s9.79,0,19.58,1.09
			C1051.82,769.96,1060.52,759.08,1060.52,759.08z"/>
		<path class="st1" d="M938.35,762.39l-11.6-10.15c-13.05,11.97-9.79-7.25-16.32,3.63C903.55,767.33,923.85,765.29,938.35,762.39z"
			/>
	</g>
	<g>
		<path class="st1" d="M521,521.71c-54.52-15.33-73.26-11.93-85.19,20.45c-11.93,32.37-34.08,3.41-34.08,3.41
			s44.3-10.22,17.04-39.19c-27.26-28.96-34.08,13.63-52.82,15.33c-18.74,1.7-25.56-10.22-25.56-10.22s22.27,6.23,30.13-5.33
			c5.64-8.3-0.37-22.78,31.6-24.06c31.97-1.28,42.86,20.02,54.45,5.11s-5.45-31.95-29.3-33.65c-23.85-1.71-54.52,37.48-78.37,37.48
			c-23.85,0-20.68-30.06-37.48-27.26c-20.45,3.41-20.45,3.41-20.45,3.41s15.33-25.56,39.19-18.74c10.47,2.99,17.42,7.58,25.13,8.52
			c8.51,1.04,14.47-13.76,6.51-16.96c-7.11-2.86-14.96-5.89-18.01-12c0,0,13.63,5.11,23.85-1.71c10.22-6.81,27.61,22.83,35.1,13.12
			c7.49-9.71-9.55-33.56,14.31-30.16c23.85,3.41,39.19,49.41,74.96,40.89c35.78-8.52,54.52-35.78,13.63-40.89
			c-40.89-5.11-51.11,0-63.04-20.45c0,0,22.15,5.11,37.48-1.7c15.33-6.81,34.08-18.74,52.82-10.22c18.74,8.52,23.85,1.7,8.52-6.81
			c-15.33-8.52-20.45-20.45-20.45-20.45s18.74,6.82,27.26,5.11c8.52-1.7,27.26-3.41,34.08,18.74c6.82,22.15,13.63,40.89,25.56,54.52
			C607.89,428,562.81,533.47,521,521.71z"/>
		<path class="st1" d="M607.89,428c0,0-32.03,80.99-63.46,70.71c-23.43-7.67-48.98,4.26-48.98,4.26s-0.85-13.63,11.07-18.74
			c11.93-5.11-15.87-0.53-31.52-8.84c-11.04-5.86-13.63-12.93-13.63-15.87c0,0,28.96,14.48,51.97,1.7
			c23-12.78,34.08-28.11,26.41-41.74c-7.67-13.63-34.93-21.3-34.93-21.3l-22.15-2.56c0,0,18.32-6.39,28.11-10.65
			c8.04-3.5,25.56-4.68,34.08,4.69c8.52,9.37,23.85,17.89,23.85,6.82s-10.22-24.71-10.22-24.71s14.91-3.83,20.02,9.8
			C583.61,395.2,587.44,419.05,607.89,428z"/>
		<path class="st1" d="M331.88,463.78c0,0,1.7,13.63,16.19,12.78c14.48-0.85,23.85-10.22,23.85-10.22s-25.56,5.96-26.41,0
			C344.66,460.37,331.88,463.78,331.88,463.78z"/>
		<path class="st1" d="M431.55,439.93c0,0-11.07,11.07-15.33,2.56c-4.26-8.52-1.7-19.59-1.7-19.59S420.48,438.22,431.55,439.93z"/>
		<path class="st1" d="M354.22,398.73c1.91-0.64,16.52-5.72,20.33,2.54c3.81,8.26,4.45-3.81,13.34-4.45
			c8.89-0.64-8.56-12.52-16.82-9.98C362.82,389.38,354.22,398.73,354.22,398.73z"/>
		<path class="st3" d="M320.81,425.44c0,0-18.74,26.41-24.7,11.93c-5.96-14.48-23,3.41-27.26-1.7
			c-4.26-5.11-18.74-11.07-18.74-11.07s9.3,2.12,18.67-1.29c9.37-3.41,16.25-12.34,23.92-1.27c7.67,11.07,22.15,8.52,14.48,1.7
			c0,0-8.52-1.7-7.67-9.37c0.85-7.67,0-1.7,7.67,0.85C314.84,417.78,315.7,415.22,320.81,425.44z"/>
		<path class="st3" d="M307.18,389.67c-1.3,9.12,12.78,8.52,11.08,0.85c-1.7-7.67,9.37-5.96,10.22-1.71
			c0.85,4.26,2.56-11.07-5.11-11.07C315.7,377.74,308.03,383.7,307.18,389.67z"/>
		<path class="st1" d="M388.96,526.82c0,0,3.41-20.45,10.22-12.78c6.81,7.67-5.96,5.11,0,11.93
			C405.14,532.78,388.96,526.82,388.96,526.82z"/>
		<path class="st1" d="M443.48,370.07c0,0,13.63,13.63,19.59,3.41c5.96-10.22,9.37-13.63,15.33-10.22
			c5.96,3.41-5.96-20.45-14.48-11.08c-8.52,9.37-4.26,19.59-10.22,17.89C447.74,368.37,443.48,370.07,443.48,370.07z"/>
		<path class="st1" d="M406.85,370.07c9.37,3.41,5.11,10.22,5.11,10.22s12.78-2.56,11.07-8.52
			C421.33,365.81,406.85,370.07,406.85,370.07z"/>
		<path class="st3" d="M382.14,365.81c3.41,5.96,9.37,3.41,9.37-1.7C391.51,359,382.14,365.81,382.14,365.81z"/>
		<path class="st1" d="M405.14,355.59c0.85,4.26,4.26,6.82,5.96,1.7C412.81,352.18,405.14,355.59,405.14,355.59z"/>
		<path class="st3" d="M598.52,428.43c0,0-8.95,42.17-31.09,44.72c-22.15,2.56-32.8,14.48-32.8,14.48s-3.41-6.81,3.41-15.33
			c6.81-8.52-8.52,3.2-24.7,3.41c-15.54,0.2-23.85-3.41-23.85-3.41s37.91-3.83,43.87-15.76c5.96-11.93,18.32-17.46,29.39-15.76
			c11.07,1.7,11.07-3.41,11.07-3.41s-9.37,3.41-15.33-7.67c-5.96-11.08-4.68-12.78-14.48-21.72c-6.32-5.77-25.56-11.93-25.56-11.93
			s11.5-3.83,28.11,3.41c15.8,6.88,23.85,25.13,24.7,18.31C572.11,410.96,567,405,567,405s11.18-1.08,15.76,10.22
			C589.15,430.98,598.52,428.43,598.52,428.43z"/>
		<path class="st3" d="M465.29,502.66c1.74-2.46-1.31-5.49-3.79-3.78c-4.86,3.35-10.58,5.3-15.47,1.53
			c-11.08-8.52-17.89-0.85-17.89-0.85s11.07,3.41,5.96,11.08c-5.11,7.67,16.45,3.36,23.85-0.85
			C460.81,508.16,463.26,505.54,465.29,502.66z"/>
	</g>
	<g>
		<path class="st1" d="M1414.99,525.71c54.52-15.33,73.26-11.93,85.19,20.45c11.93,32.37,34.08,3.41,34.08,3.41
			s-44.3-10.22-17.04-39.19c27.26-28.96,34.08,13.63,52.82,15.33c18.74,1.7,25.56-10.22,25.56-10.22s-22.27,6.23-30.13-5.33
			c-5.64-8.3,0.37-22.78-31.6-24.06c-31.97-1.28-42.86,20.02-54.45,5.11s5.45-31.95,29.3-33.65c23.85-1.71,54.52,37.48,78.37,37.48
			s20.68-30.06,37.48-27.26c20.45,3.41,20.45,3.41,20.45,3.41s-15.33-25.56-39.19-18.74c-10.47,2.99-17.42,7.58-25.13,8.52
			c-8.51,1.04-14.47-13.76-6.51-16.96c7.11-2.86,14.96-5.89,18.01-12c0,0-13.63,5.11-23.85-1.71c-10.22-6.81-27.61,22.83-35.1,13.12
			c-7.49-9.71,9.55-33.56-14.31-30.16c-23.85,3.41-39.19,49.41-74.96,40.89c-35.78-8.52-54.52-35.78-13.63-40.89
			c40.89-5.11,51.11,0,63.04-20.45c0,0-22.15,5.11-37.48-1.7c-15.33-6.81-34.08-18.74-52.82-10.22c-18.74,8.52-23.85,1.7-8.52-6.81
			c15.33-8.52,20.45-20.45,20.45-20.45s-18.74,6.82-27.26,5.11c-8.52-1.7-27.26-3.41-34.08,18.74
			c-6.82,22.15-13.63,40.89-25.56,54.52C1328.1,432,1373.18,537.47,1414.99,525.71z"/>
		<path class="st1" d="M1328.1,432c0,0,32.03,80.99,63.46,70.71c23.43-7.67,48.98,4.26,48.98,4.26s0.85-13.63-11.07-18.74
			c-11.93-5.11,15.87-0.53,31.52-8.84c11.04-5.86,13.63-12.93,13.63-15.87c0,0-28.96,14.48-51.97,1.7
			c-23-12.78-34.08-28.11-26.41-41.74c7.67-13.63,34.93-21.3,34.93-21.3l22.15-2.56c0,0-18.32-6.39-28.11-10.65
			c-8.04-3.5-25.56-4.68-34.08,4.69c-8.52,9.37-23.85,17.89-23.85,6.82s10.22-24.71,10.22-24.71s-14.91-3.83-20.02,9.8
			C1352.38,399.2,1348.55,423.05,1328.1,432z"/>
		<path class="st1" d="M1604.11,467.78c0,0-1.7,13.63-16.19,12.78c-14.48-0.85-23.85-10.22-23.85-10.22s25.56,5.96,26.41,0
			C1591.33,464.37,1604.11,467.78,1604.11,467.78z"/>
		<path class="st1" d="M1504.44,443.93c0,0,11.07,11.07,15.33,2.56c4.26-8.52,1.7-19.59,1.7-19.59S1515.51,442.22,1504.44,443.93z"
			/>
		<path class="st1" d="M1581.77,402.73c-1.91-0.64-16.52-5.72-20.33,2.54c-3.81,8.26-4.45-3.81-13.34-4.45
			c-8.89-0.64,8.56-12.52,16.82-9.98C1573.17,393.38,1581.77,402.73,1581.77,402.73z"/>
		<path class="st3" d="M1615.19,429.44c0,0,18.74,26.41,24.7,11.93c5.96-14.48,23,3.41,27.26-1.7c4.26-5.11,18.74-11.07,18.74-11.07
			s-9.3,2.12-18.67-1.29c-9.37-3.41-16.25-12.34-23.92-1.27c-7.67,11.07-22.15,8.52-14.48,1.7c0,0,8.52-1.7,7.67-9.37
			c-0.85-7.67,0-1.7-7.67,0.85C1621.15,421.78,1620.3,419.22,1615.19,429.44z"/>
		<path class="st3" d="M1628.82,393.67c1.3,9.12-12.78,8.52-11.08,0.85c1.7-7.67-9.37-5.96-10.22-1.71
			c-0.85,4.26-2.56-11.07,5.11-11.07C1620.3,381.74,1627.96,387.7,1628.82,393.67z"/>
		<path class="st1" d="M1547.04,530.82c0,0-3.41-20.45-10.22-12.78c-6.81,7.67,5.96,5.11,0,11.93
			C1530.85,536.78,1547.04,530.82,1547.04,530.82z"/>
		<path class="st1" d="M1492.51,374.07c0,0-13.63,13.63-19.59,3.41c-5.96-10.22-9.37-13.63-15.33-10.22
			c-5.96,3.41,5.96-20.45,14.48-11.08c8.52,9.37,4.26,19.59,10.22,17.89C1488.26,372.37,1492.51,374.07,1492.51,374.07z"/>
		<path class="st1" d="M1529.15,374.07c-9.37,3.41-5.11,10.22-5.11,10.22s-12.78-2.56-11.07-8.52
			C1514.66,369.81,1529.15,374.07,1529.15,374.07z"/>
		<path class="st3" d="M1553.85,369.81c-3.41,5.96-9.37,3.41-9.37-1.7C1544.48,363,1553.85,369.81,1553.85,369.81z"/>
		<path class="st1" d="M1530.85,359.59c-0.85,4.26-4.26,6.82-5.96,1.7C1523.18,356.18,1530.85,359.59,1530.85,359.59z"/>
		<path class="st3" d="M1337.47,432.43c0,0,8.95,42.17,31.09,44.72c22.15,2.56,32.8,14.48,32.8,14.48s3.41-6.81-3.41-15.33
			c-6.81-8.52,8.52,3.2,24.7,3.41c15.54,0.2,23.85-3.41,23.85-3.41s-37.91-3.83-43.87-15.76c-5.96-11.93-18.32-17.46-29.39-15.76
			c-11.07,1.7-11.07-3.41-11.07-3.41s9.37,3.41,15.33-7.67c5.96-11.08,4.68-12.78,14.48-21.72c6.32-5.77,25.56-11.93,25.56-11.93
			s-11.5-3.83-28.11,3.41c-15.8,6.88-23.85,25.13-24.7,18.31c-0.85-6.82,4.26-12.78,4.26-12.78s-11.18-1.08-15.76,10.22
			C1346.84,434.98,1337.47,432.43,1337.47,432.43z"/>
		<path class="st3" d="M1470.7,506.66c-1.74-2.46,1.31-5.49,3.79-3.78c4.86,3.35,10.58,5.3,15.47,1.53
			c11.08-8.52,17.89-0.85,17.89-0.85s-11.07,3.41-5.96,11.08c5.11,7.67-16.45,3.36-23.85-0.85
			C1475.19,512.16,1472.73,509.54,1470.7,506.66z"/>
	</g>
	<g>
		<path class="st4" d="M900.4,289.25c0,0,40.84-1.32,50.06-15.81c9.22-14.49,22.4-30.3,34.25-32.94
			c11.86-2.63,17.13,11.86,17.13,11.86s-15.81-1.32-15.81,7.9c0,9.22,26.35,23.71,30.3,0c0,0,14.49,1.32,14.49,9.22
			c0,7.9,31.62,1.32,15.81-15.81c-15.81-17.13-31.62-21.08-9.22-38.2c22.4-17.13,30.3-17.13,30.3-17.13s-31.62,21.08-15.81,26.35
			c15.81,5.27,23.71-14.49,23.71-14.49s17.12,9.22,0,22.4c-17.13,13.17-11.86,26.35-2.64,21.08c9.22-5.27,13.17-18.44,13.17-18.44
			s10.54-1.32,6.59,10.54c-3.95,11.86,23.71,7.83,23.71-26.35c0-9.22-18.44-3.95-18.44-3.95s15.81-27.66,26.35-11.86
			s13.17,28.98,26.35,3.95c13.17-25.03-17.13-17.13-17.13-17.13s22.4-7.9,21.08-17.13c0,0,6.59,25.03,19.76,10.54
			c13.17-14.49,21.08-1.32,21.08-1.32s-13.17,3.95-15.81,10.54c-2.63,6.59,0,15.81-11.86,18.44c-11.86,2.63,0.81,23.95,10.54,18.44
			c4.47-2.53,6.59-4.38,8.97-7.29c2.64-3.22,3.14-5.95,3.51-10.09l0.7-7.65c0,0,7.46,13.36,5.31,19.59
			c-5.19,14.99-30.34,25.2-15.85,30.47s6.59,23.71,19.76,15.81c13.17-7.9-5.27-22.4,11.86-28.98c17.13-6.59,3.95,10.54,21.08,3.95
			c17.13-6.59,15.81-18.44,28.98-15.81c13.17,2.63,22.39,13.17,22.39,13.17s-19.76-5.27-23.71,3.95s-14.49,15.81-22.4,15.81
			c-7.9,0-2.63,17.13,15.81,7.9c18.44-9.22,21.08-14.49,26.35-6.59c5.27,7.9,19.76,7.9,19.76,7.9l7.91-5.27c0,0,0,6.59,13.17,7.9
			c13.17,1.32,23.71,9.22,23.71,9.22s-88.26-3.95-104.07,9.22s11.86,19.76,11.86,19.76s-61.92-7.9-79.04-17.13
			c-17.13-9.22-40.84,9.22-40.84,9.22s-11.02-10.42-38.2-3.95c-27.67,6.59-51.38-5.27-75.09-5.27c-23.71,0-35.57,5.27-35.57,5.27
			s-11.86-13.17-23.71-13.17C949.14,287.93,920.16,301.11,900.4,289.25z"/>
		<path class="st1" d="M900.4,289.25c0,0,13.83,9.88,32.94,5.27c19.1-4.61,28.32-5.93,35.57-3.95c7.25,1.98,15.81,10.54,15.81,10.54
			s29.64-5.93,40.84-3.95c11.2,1.98,48.74,9.88,61.26,7.25c12.52-2.63,23.71-6.59,32.94-3.95c9.22,2.64,14.49,7.25,14.49,7.25
			s15.15-13.17,27.67-12.52c12.52,0.66,17.79,6.59,32.28,9.88c14.49,3.29,59.28,7.9,59.28,7.9s-32.93-3.95-30.3-16.47
			c2.64-12.52,15.81-9.88,15.81-9.88s-5.27-7.9-14.49-6.59c0,0-8.56-10.54-1.32-16.47c7.25-5.93,17.13-2.63,19.76-9.88
			c1.08-2.98,1.72-4.73,2.09-5.76c0.54-1.48,0.54-1.48,0.54-1.48s-7.91,7.25-13.83,6.59c-5.93-0.66-12.52-1.98-17.13,1.98
			c-4.61,3.95-5.93,23.71-2.64,29.64c3.29,5.93-11.2,11.86-15.81,8.56c-4.61-3.29-10.54-21.08-17.13-25.69
			c-6.59-4.61-19.1-7.9-19.1-15.15s11.2-6.59,11.2-6.59s-3.95-7.9-11.86-3.95c0,0,7.25-10.54,1.98-17.78
			c-5.27-7.25,0.66-16.47,0.66-16.47s-13.83,7.9-13.17,16.47c0.66,8.56-4.61,19.1-8.56,18.44c0,0-3.83-13.83-7.54-19.27
			c-3.96-5.82-10.24-9.71-10.24-9.71s5.34,9.47,3.37,18.69c-1.98,9.22-10.45,7.39-10.45,17.93c0,10.54-16.39,14.92-24.41,10.41
			c-6.4-3.6-2.4-14.01-2.4-14.01s-14.19,9.14-12.21,17.04c1.97,7.9-12.23,5.12-16.61-13.52c-3.04-12.95,5.16-19.96,5.16-19.96
			s-8.85,0.66-12.26,5.82c-3,4.53-15.81-3.29-13.83-10.54s1.32-5.27,1.32-5.27s-11.86,7.9-5.93,13.83
			c5.93,5.93,30.96,25.69,22.4,36.23s-19.76,11.2-27.67,9.22c-7.91-1.98-5.93-11.2-5.93-11.2s-8.56,7.25-7.9,12.52
			c0,0-25.69,2.63-33.59-10.54s-1.98-15.81-1.98-15.81s-9.88,4.61-8.56,12.52c1.32,7.9,3.95,13.17,3.95,13.17s-9.22,3.29-13.17-3.95
			c-3.95-7.25-3.95-7.25-3.95-7.25s-3.95,3.29-1.98,8.56c1.98,5.27,0,6.59,0,6.59s-18.44,7.9-28.98,7.9
			C916.2,291.89,900.4,289.25,900.4,289.25z"/>
		<path class="st2" d="M1135.31,300.95c0,0,17.21-21.21,32.02-12.01c19.35,12.03,25.62-15.21-12.82-26.09
			c-10.77-3.05-3.19-20.73-3.19-20.73s-10.01,6.8-10.41,16.41c-0.27,6.48,6,13.21,6,13.21s-20.41-9.61-14.14-20.08
			c6.44-10.75-0.27-15.94-0.27-15.94s-1.2,10.41-8.41,13.21c-6.08,2.36-8,10.01-4.4,17.61c2.66,5.62,11.1,8.18,11.1,8.18
			s-6.58-0.72-13.17,1.98c-14.33,5.86-22.9,4.01-28.74-4.55c-4.76-6.97-5.51-9.94-5.51-9.94s-4.92,14,5.51,23.55
			c12.02,10.99,21.39,9.74,29.62,4.8c16.01-9.61,23.21-4.8,23.21-4.8S1126.5,296.95,1135.31,300.95z"/>
		<path class="st2" d="M1070.28,293.26c0,0-4.29-8.59-15.96-8.12c-11.66,0.48-21.6,1.14-25.5-0.44c-3.89-1.58-6.51-4.19-6.51-4.19
			s1.81,10.07,14.44,11.43c12.62,1.37,17.01-1.64,23.71,0.83c6.7,2.47,9.89,5.14,9.89,5.14L1070.28,293.26z"/>
		<path class="st2" d="M1005.79,288.59c0,0-2.63-4.61-9.88-3.95c-7.25,0.66-13.17,0-15.81-5.27c0,0-0.66,11.2,7.25,11.2
			c7.9,0,14.49-0.66,14.49-0.66c4.61,1.32,6.59,2.64,6.59,2.64L1005.79,288.59z"/>
		<path class="st1" d="M1172.44,192.42c0,0-2.64,5.27-7.25,4.61c-4.61-0.66-2.64,6.59-2.64,6.59s3.29-1.32,8.56-3.95
			C1176.39,197.03,1172.44,192.42,1172.44,192.42z"/>
		<path class="st4" d="M1257.09,277.22c0,0,8.27-1.03,11.38-5.17c3.1-4.14,2.58-2.59,6.72,0c4.14,2.59,9.83-0.52,12.41,2.07
			c2.59,2.59,5.69,4.14,5.69,4.14s-6.55-0.54-9.83-1.03c-10.34-1.55-10.34,2.07-11.89,1.55
			C1270.02,278.25,1261.23,277.73,1257.09,277.22z"/>
		<path class="st1" d="M1215.25,224.7c0,0-1.98-20.42,8.56-17.79c10.54,2.63,1.98-11.86,1.98-11.86s8.56,1.32,9.22,7.9
			c0.66,6.59-1.32,9.22-1.32,9.22s-7.25-2.63-11.2,0.66C1218.55,216.14,1215.25,224.7,1215.25,224.7z"/>
		<path class="st1" d="M1135.69,178.72c0,0,11.86-1.98,13.83-7.9c0,0-5.14,0.2-5.93-4.61c0,0,0,3.95-4.61,6.59
			C1134.37,175.42,1135.69,178.72,1135.69,178.72z"/>
		<path class="st1" d="M1163.14,177.38c0,0,3.92-0.23,7.25,1.32c0,0-4.61-5.27-1.98-8.56
			C1168.41,170.14,1163.14,170.8,1163.14,177.38z"/>
		<path class="st2" d="M1241.6,205.6c0,0-4.61-7.9-0.66-7.9c3.95,0,7.25-1.98,6.59-4.61C1246.87,190.45,1250.82,203.62,1241.6,205.6
			z"/>
		<path class="st1" d="M999.86,238.53c0,0-6.59-3.29-11.2-2.64c0,0,5.93-2.63,3.95-5.93c0,0,2.63,0,5.27,1.32
			C1000.52,232.6,999.86,238.53,999.86,238.53z"/>
		<path class="st1" d="M1003.15,225.36c0,0-1.32,4.61,3.95,4.61c0,0-3.29-3.95,1.98-5.27c5.27-1.32-5.93-6.59-5.93-6.59
			S1005.79,224.04,1003.15,225.36z"/>
		<path class="st2" d="M993.27,222.06c0,0-1.98-3.29-4.61-3.29c-2.63,0,3.95-5.27,3.95-5.27L993.27,222.06z"/>
		<path class="st1" d="M1152.02,159.49c0,0,1.98,4.61,5.27,3.29c3.29-1.32-1.32-5.93,1.32-7.9
			C1158.6,154.88,1153.33,152.24,1152.02,159.49z"/>
		<path class="st1" d="M1233.04,220.09c0,0-3.95-3.29-9.22,3.29s-7.39,7.66-7.39,7.66l12.01-0.8
			C1233.23,228.91,1233.04,220.09,1233.04,220.09z"/>
		<path class="st1" d="M1074.29,196.38c0,0,12.93-8.11,6.59-11.86c-4.8-2.84-3.29-6.59-3.29-6.59s2.18,2.37,7.25-2.63
			c2.72-2.69-1.98-8.56-1.98-8.56s15.15,9.88,8.56,11.2c-6.59,1.32-9.88,1.98-7.9,3.95c1.98,1.98,4.21,6.37,3.29,8.56
			C1085.68,193.16,1083.55,196.09,1074.29,196.38z"/>
		<path class="st2" d="M1070.74,187.55c0,0,3.8-8.09,0.4-6.08c-4.4,2.61-1.74-7.8-1.74-7.8l-4.85,7.14
			C1065.93,186.75,1070.74,187.55,1070.74,187.55z"/>
		<path class="st2" d="M1187.34,149.27c0,0-6.72,10.65-12.33,8.96c-5.6-1.68-10.09,7.85-10.09,7.85s3.92-4.48,11.77-2.8
			C1184.54,164.95,1186.78,153.75,1187.34,149.27z"/>
		<path class="st2" d="M1070.36,297.92c0,0,5.72-4.17,0.92-13.77c-4.8-9.61-2.4-12.01-2.4-12.01s-8,4-5.6,11.21
			C1065.67,290.55,1070.36,297.92,1070.36,297.92z"/>
		<path class="st2" d="M1217.76,266.94c1.82-7.78,12.01-11.21,12.01-11.21s-9.61-1.6-12.81,2.8c-3.2,4.4-4.8,10.6-3.19,17.81
			c1.6,7.2,3.59,10.61,0.79,14.61c-2.8,4-8.4,8-8.4,8s14.41,1.2,14.81-9.21C1221.36,279.34,1216.49,272.36,1217.76,266.94z"/>
	</g>
	<g>
		<path class="st4" d="M986.7,281.89c0,0-40.84-1.32-50.06-15.81c-9.22-14.49-22.4-30.3-34.25-32.93
			c-11.86-2.63-17.12,11.86-17.12,11.86s15.8-1.32,15.8,7.9c0,9.22-26.34,23.71-30.29,0c0,0-14.49,1.32-14.49,9.22
			c0,7.9-31.62,1.32-15.81-15.81c15.81-17.13,31.62-21.08,9.22-38.2c-22.4-17.13-30.3-17.13-30.3-17.13s31.62,21.08,15.81,26.35
			c-15.81,5.27-23.71-14.49-23.71-14.49s-17.12,9.22,0,22.4c17.13,13.17,11.86,26.35,2.64,21.08c-9.22-5.27-13.17-18.44-13.17-18.44
			s-10.54-1.32-6.59,10.54c3.95,11.86-23.71,7.83-23.71-26.35c0-9.22,18.44-3.95,18.44-3.95s-15.81-27.66-26.35-11.86
			c-10.54,15.81-13.17,28.98-26.35,3.95c-13.17-25.03,17.13-17.13,17.13-17.13s-22.4-7.9-21.08-17.13c0,0-6.59,25.03-19.76,10.54
			c-13.17-14.49-21.08-1.32-21.08-1.32s13.17,3.95,15.81,10.54c2.63,6.59,0,15.81,11.86,18.44c11.86,2.63-0.81,23.95-10.54,18.44
			c-4.47-2.53-6.59-4.38-8.97-7.29c-2.64-3.22-3.14-5.95-3.51-10.09l-0.7-7.65c0,0-7.46,13.36-5.31,19.59
			c5.19,14.99,30.34,25.2,15.85,30.47c-14.49,5.27-6.59,23.71-19.76,15.81c-13.17-7.9,5.27-22.4-11.86-28.98
			c-17.13-6.59-3.95,10.54-21.08,3.95c-17.13-6.59-15.81-18.44-28.98-15.81c-13.17,2.63-22.39,13.17-22.39,13.17
			s19.76-5.27,23.71,3.95c3.95,9.22,14.49,15.81,22.4,15.81c7.9,0,2.63,17.13-15.81,7.9c-18.44-9.22-21.08-14.49-26.35-6.59
			c-5.27,7.9-19.76,7.9-19.76,7.9l-7.91-5.27c0,0,0,6.59-13.17,7.9c-13.17,1.32-23.71,9.22-23.71,9.22s88.26-3.95,104.07,9.22
			c15.81,13.17-11.86,19.76-11.86,19.76s61.92-7.9,79.04-17.13c17.13-9.22,40.84,9.22,40.84,9.22s11.02-10.42,38.2-3.95
			c27.67,6.59,51.38-5.27,75.09-5.27c23.71,0,35.57,5.27,35.57,5.27s11.86-13.17,23.71-13.17
			C937.96,280.57,966.94,293.74,986.7,281.89z"/>
		<path class="st1" d="M986.7,281.89c0,0-13.83,9.88-32.94,5.27c-19.1-4.61-28.32-5.93-35.57-3.95
			c-7.25,1.98-15.81,10.54-15.81,10.54s-29.64-5.93-40.83-3.95c-11.2,1.98-48.74,9.88-61.26,7.25c-12.52-2.63-23.71-6.59-32.94-3.95
			c-9.22,2.64-14.49,7.25-14.49,7.25s-15.15-13.17-27.66-12.52c-12.52,0.66-17.79,6.59-32.28,9.88c-14.49,3.29-59.28,7.9-59.28,7.9
			s32.93-3.95,30.3-16.47c-2.64-12.52-15.81-9.88-15.81-9.88s5.27-7.9,14.49-6.59c0,0,8.56-10.54,1.32-16.47
			c-7.25-5.93-17.13-2.63-19.76-9.88c-1.08-2.98-1.72-4.73-2.09-5.76c-0.54-1.48-0.54-1.48-0.54-1.48s7.91,7.25,13.83,6.59
			c5.93-0.66,12.52-1.98,17.13,1.98c4.61,3.95,5.93,23.71,2.64,29.64c-3.29,5.93,11.2,11.86,15.81,8.56
			c4.61-3.29,10.54-21.08,17.13-25.69c6.59-4.61,19.1-7.9,19.1-15.15s-11.2-6.59-11.2-6.59s3.95-7.9,11.86-3.95
			c0,0-7.25-10.54-1.98-17.78c5.27-7.25-0.66-16.47-0.66-16.47s13.83,7.9,13.17,16.47c-0.66,8.56,4.61,19.1,8.56,18.44
			c0,0,3.83-13.83,7.54-19.27c3.96-5.81,10.24-9.71,10.24-9.71s-5.34,9.47-3.37,18.69c1.98,9.22,10.45,7.39,10.45,17.93
			c0,10.54,16.39,14.92,24.41,10.41c6.4-3.6,2.4-14.01,2.4-14.01s14.19,9.14,12.21,17.04c-1.97,7.9,12.23,5.12,16.61-13.52
			c3.04-12.95-5.16-19.96-5.16-19.96s8.85,0.66,12.26,5.81c3,4.53,15.81-3.29,13.83-10.54c-1.98-7.25-1.32-5.27-1.32-5.27
			s11.86,7.9,5.93,13.83c-5.93,5.93-30.96,25.69-22.4,36.23c8.56,10.54,19.76,11.2,27.66,9.22c7.91-1.98,5.93-11.2,5.93-11.2
			s8.56,7.25,7.9,12.52c0,0,25.68,2.63,33.59-10.54c7.9-13.17,1.98-15.81,1.98-15.81s9.88,4.61,8.56,12.52
			c-1.32,7.9-3.95,13.17-3.95,13.17s9.22,3.29,13.17-3.95c3.95-7.25,3.95-7.25,3.95-7.25s3.95,3.29,1.98,8.56
			c-1.98,5.27,0,6.59,0,6.59s18.44,7.9,28.98,7.9C970.89,284.52,986.7,281.89,986.7,281.89z"/>
		<path class="st2" d="M751.79,293.59c0,0-17.21-21.21-32.02-12.01c-19.35,12.03-25.62-15.21,12.82-26.09
			c10.77-3.05,3.19-20.73,3.19-20.73s10.01,6.8,10.41,16.41c0.27,6.48-6,13.21-6,13.21s20.41-9.61,14.14-20.08
			c-6.44-10.75,0.27-15.94,0.27-15.94s1.2,10.41,8.41,13.21c6.08,2.36,8,10.01,4.4,17.61c-2.66,5.62-11.1,8.18-11.1,8.18
			s6.58-0.72,13.17,1.98c14.33,5.86,22.9,4.01,28.74-4.55c4.76-6.97,5.51-9.94,5.51-9.94s4.92,14-5.51,23.55
			c-12.02,10.99-21.39,9.74-29.62,4.8c-16.01-9.61-23.21-4.8-23.21-4.8S760.6,289.59,751.79,293.59z"/>
		<path class="st2" d="M816.82,285.9c0,0,4.29-8.59,15.96-8.12c11.66,0.48,21.6,1.14,25.5-0.44c3.89-1.58,6.51-4.19,6.51-4.19
			s-1.81,10.07-14.44,11.43c-12.62,1.37-17.01-1.64-23.71,0.83c-6.7,2.47-9.89,5.14-9.89,5.14L816.82,285.9z"/>
		<path class="st2" d="M881.32,281.23c0,0,2.63-4.61,9.88-3.95c7.24,0.66,13.17,0,15.81-5.27c0,0,0.66,11.2-7.25,11.2
			c-7.9,0-14.49-0.66-14.49-0.66c-4.61,1.32-6.59,2.64-6.59,2.64L881.32,281.23z"/>
		<path class="st1" d="M714.66,185.06c0,0,2.64,5.27,7.25,4.61c4.61-0.66,2.64,6.59,2.64,6.59s-3.29-1.32-8.56-3.95
			C710.71,189.67,714.66,185.06,714.66,185.06z"/>
		<path class="st4" d="M630.01,269.85c0,0-8.27-1.03-11.38-5.17c-3.1-4.14-2.58-2.59-6.72,0c-4.14,2.59-9.83-0.52-12.41,2.07
			c-2.59,2.59-5.69,4.14-5.69,4.14s6.55-0.54,9.83-1.03c10.34-1.55,10.34,2.07,11.89,1.55
			C617.08,270.89,625.87,270.37,630.01,269.85z"/>
		<path class="st1" d="M671.85,217.34c0,0,1.98-20.42-8.56-17.79c-10.54,2.63-1.98-11.86-1.98-11.86s-8.56,1.32-9.22,7.9
			c-0.66,6.59,1.32,9.22,1.32,9.22s7.25-2.63,11.2,0.66C668.56,208.77,671.85,217.34,671.85,217.34z"/>
		<path class="st1" d="M751.41,171.35c0,0-11.86-1.98-13.83-7.9c0,0,5.14,0.2,5.93-4.61c0,0,0,3.95,4.61,6.59
			C752.73,168.06,751.41,171.35,751.41,171.35z"/>
		<path class="st1" d="M723.96,170.02c0,0-3.92-0.23-7.25,1.32c0,0,4.61-5.27,1.98-8.56C718.69,162.77,723.96,163.43,723.96,170.02z
			"/>
		<path class="st2" d="M645.5,198.23c0,0,4.61-7.9,0.66-7.9c-3.95,0-7.25-1.98-6.59-4.61C640.23,183.08,636.28,196.26,645.5,198.23z
			"/>
		<path class="st1" d="M887.24,231.17c0,0,6.58-3.29,11.19-2.64c0,0-5.93-2.63-3.95-5.93c0,0-2.63,0-5.27,1.32
			C886.58,225.24,887.24,231.17,887.24,231.17z"/>
		<path class="st1" d="M883.95,217.99c0,0,1.32,4.61-3.95,4.61c0,0,3.29-3.95-1.98-5.27c-5.27-1.32,5.93-6.59,5.93-6.59
			S881.32,216.68,883.95,217.99z"/>
		<path class="st2" d="M893.83,214.7c0,0,1.98-3.29,4.61-3.29c2.63,0-3.95-5.27-3.95-5.27L893.83,214.7z"/>
		<path class="st1" d="M735.09,152.12c0,0-1.98,4.61-5.27,3.29c-3.29-1.32,1.32-5.93-1.32-7.9
			C728.5,147.51,733.77,144.88,735.09,152.12z"/>
		<path class="st1" d="M654.07,212.72c0,0,3.95-3.29,9.22,3.29c5.27,6.59,7.39,7.66,7.39,7.66l-12.01-0.8
			C653.87,221.55,654.07,212.72,654.07,212.72z"/>
		<path class="st1" d="M812.81,189.01c0,0-12.93-8.11-6.59-11.86c4.8-2.84,3.29-6.59,3.29-6.59s-2.18,2.37-7.25-2.63
			c-2.72-2.68,1.98-8.56,1.98-8.56s-15.15,9.88-8.56,11.2c6.59,1.32,9.88,1.98,7.9,3.95c-1.98,1.98-4.21,6.37-3.29,8.56
			C801.42,185.79,803.56,188.73,812.81,189.01z"/>
		<path class="st2" d="M816.36,180.19c0,0-3.8-8.09-0.4-6.08c4.4,2.61,1.74-7.8,1.74-7.8l4.85,7.14
			C821.17,179.39,816.36,180.19,816.36,180.19z"/>
		<path class="st2" d="M699.76,141.9c0,0,6.72,10.65,12.33,8.96c5.6-1.68,10.09,7.85,10.09,7.85s-3.92-4.48-11.77-2.8
			C702.56,157.59,700.32,146.38,699.76,141.9z"/>
		<path class="st2" d="M816.75,290.55c0,0-5.72-4.17-0.92-13.77c4.8-9.61,2.4-12.01,2.4-12.01s8,4,5.6,11.21
			C821.43,283.18,816.75,290.55,816.75,290.55z"/>
		<path class="st2" d="M669.34,259.57c-1.82-7.78-12.01-11.21-12.01-11.21s9.61-1.6,12.81,2.8c3.2,4.4,4.8,10.6,3.19,17.81
			c-1.6,7.2-3.59,10.61-0.79,14.61c2.8,4,8.4,8,8.4,8s-14.41,1.2-14.81-9.21C665.74,271.98,670.61,265,669.34,259.57z"/>
	</g>
	<g>
		<path class="st1" d="M951.97,286.43c-12.57,0.63-12.52,1.25-12.52,1.25s18.78-11.27-1.25-22.54
			c-20.04-11.27-38.82-21.29-28.8-43.83c10.02-22.54,30.06-26.3,20.04-43.83c-10.02-17.53,14.93-16.59,10.02-32.56
			c-5.01-16.28,5.01-21.29,5.01-21.29s-7.51,6.26,1.25,11.27c8.77,5.01,12.52,12.52,5.01,20.04c-7.51,7.51-16.28,13.77-6.26,17.53
			c10.02,3.76,5.01,8.77,1.25,21.29c-3.76,12.52-6.26,31.31,5.01,27.55c11.27-3.76-1.25-26.3,11.27-36.32
			c12.52-10.02,13.78,0,13.78,0s-15.03,1.25-8.77,10.02c6.26,8.77,11.27,3.76,12.52,20.04c1.25,16.28-13.78,21.29-8.77,32.56
			C975.76,258.88,977.01,285.18,951.97,286.43z"/>
		<path class="st1" d="M953.65,275.78c-1.56,0.83,12.79-11.02-10.14-22.93c-22.93-11.91-29.47-20.07-22.05-33.52
			c7.06-12.79,13.67-18.96,15.88-27.34c2.21-8.38,0-13.23,0-13.23s6.87,8.75,3.09,18.96c-4.41,11.91-7.34,24.2-0.88,28.66
			c5.73,3.97,13.94,2.28,19.4-0.88c8.38-4.85,3.97-24.25,3.97-24.25s7.06,7.5,8.82,14.11c1.76,6.62-6.61,15.88-8.38,22.93
			c-1.76,7.06,6.78,16.1,3.53,23.81C963.35,270.48,960.26,272.25,953.65,275.78z"/>
		<path class="st3" d="M927.63,222.42c0,0-4.61,8.92,1.32,14.11c7.06,6.17,21.86,14.53,20.73,13.67c-5.47-4.14,10.1,8.82,9.7,13.23
			c-0.44,4.85-0.44,5.73-0.44,5.73s8.58-8.51,4.85-14.11c-4.41-6.61-7.21-14.78-3.97-19.4c3.09-4.41,7.06-13.23,7.06-13.23
			S957.61,233,951,233c-6.62,0-18.08,0-18.08-7.5c0-7.5,0.44-12.79,0.44-12.79S930.27,215.8,927.63,222.42z"/>
		<path class="st3" d="M960.7,120.11c0,0-7.06,13.23,0.88,15.88c7.94,2.65,6.17,23.81,0.88,25.58c-5.29,1.76-2.65,10.58-2.65,10.58
			s3.53-6.17,11.47-9.7c7.94-3.53,8.82-16.76,1.76-23.81C965.99,131.57,958.06,128.04,960.7,120.11z"/>
		<path class="st3" d="M951.33,104.01c0,0-2.48,6.45-5.95,3.97c0,0-0.5,5.46,2.98,5.95c3.47,0.5,2.98,5.95,2.98,5.95
			S957.28,108.97,951.33,104.01z"/>
	</g>
</g>
<g id="Layer_4">
	<g>
		<path class="st1" d="M856.64,846.48c2.86,4.5-78.83-37.48-38.77-95.63c40.06-58.16-3.88-51.7-3.88-51.7s6.46-19.38,24.55-12.92
			c18.09,6.46,20.68,36.19,20.68,36.19s6.46-20.68,21.97-27.14c15.51-6.46,31.02-19.39-1.29-27.14
			c-32.31-7.75-52.99-20.68-38.77-51.69c14.21-31.02,31.02,7.75,43.94-2.59c12.92-10.34,32.31-19.38,11.63-40.06
			c-20.68-20.68-11.63-33.6-11.63-33.6s6.46,16.8,20.68,23.26c14.22,6.46,34.89,24.55,24.56,40.06
			c-10.34,15.51-32.31,23.26-24.56,33.6c7.76,10.34,19.39-2.59,28.43,15.51c9.04,18.09,10.34,24.55,27.14,15.51
			c16.8-9.05,15.51-31.02,3.88-33.6c-14.38-3.2-21.97-19.38-7.75-27.14c12.53-6.84,24.56-6.46,24.56-6.46l-6.26,6.26
			c-5.46,5.46-4.57,14.58,1.87,18.85c7.38,4.89,13.44,8.05,10.85,17.54c-3.88,14.22,6.46,16.8,6.46,16.8s20.78-0.2,21.97,12.92
			c1.29,14.22,1.29,14.22,1.29,14.22s-36.19-23.26-31.02,6.46c0,0,23.26,73.67,43.94,41.36c20.68-32.31,3.88-38.77,3.88-38.77
			s23.26-5.17,19.38,18.09s-12.92,40.06,2.58,36.19c15.51-3.88,20.68,14.22,20.68,14.22s-14.44,0.44-18.09,7.75
			c-7.75,15.51,10.34,50.4-41.36,67.2c-51.69,16.8-25.85-18.09-62.03-23.26c-36.19-5.17-41.35,23.26-41.35,23.26
			s-12.92-10.34-3.88-24.56c9.05-14.22,18.59-16.75,18.59-16.75s-21.18-11.68-34.1,10.29c-12.92,21.97-18.09,19.39-29.72,19.39
			S847.59,832.26,856.64,846.48z"/>
		<path class="st1" d="M956.54,597.05c0,0-2.56-17.1-11.97-22.23s-11.12-21.37,1.71-19.66c12.82,1.71,11.11-13.68,11.11-13.68
			s14.53,7.69,7.69,13.68c-6.84,5.98-15.39,9.4-15.39,9.4c3.42,4.28,11.97-3.42,13.68,4.28c1.71,7.7,5.98,10.26,6.84,4.28
			c0.85-5.99,12.82,5.98,5.98,9.4c-6.84,3.42-17.1,2.56-17.95-0.86C957.4,578.24,964.23,588.5,956.54,597.05z"/>
		<path class="st1" d="M949.58,654.59c0,0-11.68-6.82-7.79-11.77c0,0,4.54,1.86,8.44,0.62c3.89-1.24,9.08,2.48,5.19,4.34
			C951.53,649.63,949.58,654.59,949.58,654.59z"/>
		<path class="st1" d="M865.69,815.46c0,0,18.93-0.42,25.22-17.38c9.52-25.71,63.29-5.7,63.29-5.7s-4.43,5.7-18.35,8.86
			c-9.84,2.24-10.71,7.76-10.71,7.76l0,0c0,0,31.02-9.05,43.94,1.29c12.92,10.34,12.92,25.85,32.31,24.55
			c19.38-1.29,43.94-7.75,45.23-32.31c1.29-24.56-18.09-42.65-10.34-55.57c0,0-14.21,7.75-15.51,20.68
			c-1.29,12.92-32.31,5.17-32.31-14.22c0-19.38-6.45-50.95-16.8-56.86c-18.09-10.34-34.89-11.63-38.77-23.26
			c-3.88-11.63-5.17-19.38-28.43-24.55c-23.26-5.17-10.34-27.14-10.34-27.14s-23.77-3.74-19.39,11.63
			c3.51,12.31,3.88,15.51,3.88,15.51l0,0c0,0-14.22-9.05-16.8-19.39c0,0-10.34,10.34,0,19.39c10.34,9.05,40.06,5.17,46.53,18.09
			c6.46,12.92,3.88,33.6-14.22,42.65c-18.09,9.05-27.14,15.51-28.43,29.72c-1.29,14.22-19.63,20.61-15.51,6.46
			c4.65-15.95-1.29-34.89-1.29-34.89s-2.59,37.48-12.92,43.94c-10.34,6.46-14.22,23.26,0,23.26c14.22,0,19.38,19.39,7.75,19.39
			c-11.63,0-16.8,1.29-12.92,12.92c3.88,11.63,12.92,20.68,12.92,20.68S830.79,815.46,865.69,815.46z"/>
		<path class="st5" d="M1016.89,811.59c0,0-25.85,18.09-51.7-21.97c-25.85-40.06-46.53-12.92-46.53-12.92s-10.34-7.75,0-18.09
			c0,0-31.02,2.58-32.31,20.68c-1.29,18.09-1.29,21.97-15.51,23.26c-14.22,1.29-14.22,1.29-14.22,1.29s20.68-9.05,12.92-19.38
			c-7.75-10.34-1.29-19.39-1.29-19.39s2.59,9.05-14.21,6.46c0,0,11.63-6.46,19.38-24.55c7.75-18.09,21.97,1.29,21.97,1.29
			s-14.22-20.68,7.75-28.43c21.97-7.75,27.14-24.55,23.26-32.31c0,0,19.39,5.17,18.09,20.68c-1.29,15.51-14.22,25.85-5.17,27.14
			c9.05,1.29,23.26-10.34,20.68-21.97c0,0,16.8,11.63,9.05,24.56c-7.75,12.92,5.17,45.23,21.97,42.65
			c16.8-2.59,5.17-34.89,5.17-34.89s18.09,10.34,15.51,24.55c-2.58,14.22,6.46,31.02,12.92,18.09
			C1024.65,788.32,1034.99,802.54,1016.89,811.59z"/>
	</g>
</g>
<g id="Layer_5">
	<g>
		<path class="st0" d="M1468.73,554.87c-7.06-7.09-14.24-14.26-20.14-22.36c-3.71-5.09-7.1-10.55-10.5-16.04l-95.51-115.29
			l13.66-8.66c1.04-4.36,3.01-8.48,5.99-11.92c2.04-2.36,4.29-4.38,6.68-6.18l-1.03,0l3.23-2.05l-2.12,0l3.22-2.04l-4.54,0
			l7.43-5.31c-2.67-2.89-4.5-6.67-2.29-7.36c15.1-4.7,25.44-18.04,41.4-20.79c0.13-0.02,0.25-0.05,0.38-0.07l77.86-55.64h-170.91
			c-4.85,0.21-9.7,0.26-14.57,0.03c-0.18-0.01-0.36-0.02-0.55-0.03h-155.16c-16.78,1.93-33.55,3.98-50.44,4.43
			c-15.61,0.41-30.7-1.64-45.72-4.43h-76.29l-10.09-16.4c-3.26-3.91-5.96-8.58-8.09-13.15l-1.15-1.87v-0.71
			c-1.1-2.59-2.02-5.09-2.74-7.34c-0.63-1.96-1.2-3.92-1.69-5.88l-2.07,3.36l-4.5-7.32c-0.6,1.51-1.27,2.97-2,4.4v13.49
			l-19.33,31.43H420.77c13.92,5.34,26.9,12.73,37.31,22.65l30.75,17.71l16.9,12.86l-0.01,4.75l6.3,0.03l74.24,56.5l-26.49,32.23
			c-0.87,2.59-1.92,5.12-3.11,7.57c-4.28,8.77-10.03,16.95-16.81,23.97c-4.55,4.71-10.12,9.85-16.43,12.71l-9.61,11.7l-12.26,14.68
			c0.32,0.98,0.31,1.87-0.19,2.53c-2.27,3.03-5.16,5.25-8.12,7.42l-18.63,22.31c-4.06,6.9-8.31,13.42-14.22,19.14
			c-2.1,2.04-4.35,4.04-6.72,5.93l-11.32,13.55l38.52,37.84c13.57,6.73,24.59,17.25,33.76,29.28c3.27,4.29,6.3,8.77,9.44,13.15
			l14.56,14.3c2.47,1.94,4.93,3.89,7.36,5.89c9.06,7.44,17.94,15.24,25.81,23.95c6.68,7.39,12.78,17.35,21.65,22.32
			c2.75,1.54,5.32,3.82,6.69,6.74c10.32,0.3,20.72,0.13,30.67,3.01l9.1-0.01l31.61,25.19c12.43-1.36,25.04-0.63,37.56-0.45
			c13.79,0.2,27.62-0.13,41.27,1.81h0.27c-0.02-0.84,0.46-1.34,1.68-1.2c2.44,0.29,4.95,0.69,7.49,1.2h16.51l0.66,1.23h0.01
			l0.67,1.25h0.01l0.67,1.25h0.01l0.67,1.25h0.01l0.67,1.25h0.01l0.6,1.12c3.93,2.23,7.5,4.94,10.42,8.2
			c2.07,2.3,3.71,4.89,5.6,7.32c0.01,0,0.02,0,0.03,0c5.39,0.79,10.64,2.21,15.56,4.57h7.85c-0.57-1.06-1.94-4.18,0.09-4.18
			c26.38-0.04,52.79-1.35,79.06,0.32c1.07-0.14,2.14-0.26,3.21-0.36c16.88-1.54,34.12-0.06,50.9,1.91c7.14,0.84,15,0.94,22.42,2.32
			h22.14c4.84-1.05,9.98-1.24,15.08-1.19c10.42,0.11,22.43,1.19,30.5-6.68c2.23-2.18,9.04,4,10.08,7.86h8.26
			c7.62-4.91,17.07-6.85,26.69-7.04c-1.03-1.9-1.26-3.61,0.16-4.14c11.56-4.32,21.74,0.73,31.36,7.05l12.48-23.29h103.35
			l33.14-26.57l53.93,0.05l75.29-73.87c3.35-13.78,14.12-21.11,26.75-26.25l57.37-56.29l-7.9-9.54
			C1472.22,558.3,1470.43,556.58,1468.73,554.87z M603.17,718.35c-2.95,0-5.65-2.73-7.34-4.89c-0.46-0.59-3.83-5.82-1.01-5.82
			c2.95,0,5.65,2.73,7.34,4.89C602.62,713.12,605.99,718.35,603.17,718.35z"/>
		<g>
			<path class="st0" d="M1413.31,650.19l6.9-6.77C1417.59,645.38,1415.25,647.61,1413.31,650.19z"/>
			<path class="st0" d="M1464.73,542.91c-6.43-9.11-11.96-19.1-19.32-27.45c-1.49-1.69-2.96-3.4-4.43-5.11
				c2.45,3.8,4.85,7.64,7.3,11.44C1453.2,529.42,1458.47,536.36,1464.73,542.91z"/>
			<path class="st0" d="M906.13,786.83c-1.44,0.21-2.88,0.45-4.31,0.73c-2.59,0.51-5.16,1.1-7.71,1.77h36.61
				C922.54,788.14,914.34,787.34,906.13,786.83z"/>
			<path class="st0" d="M846.6,786.2c1.54,0.67,2.92,1.88,4.05,3.13h5.3c0.36-0.14,0.72-0.28,1.08-0.43
				c2.34-0.99,4.69-1.96,7.06-2.91C858.27,786.04,852.44,786.12,846.6,786.2z"/>
			<path class="st0" d="M786.47,771.36c-1.67-2.06-4.67-3.09-7.06-4.09c-1.07-0.45-2.14-0.87-3.23-1.26
				c1.87,1.46,3.72,2.95,5.58,4.46c2.2,0.97,4.35,2.05,6.46,3.2C787.65,772.88,787.08,772.11,786.47,771.36z"/>
			<path class="st0" d="M647.72,741.81c-0.37-0.29-0.76-0.56-1.15-0.83c0.1,0.15,0.2,0.29,0.29,0.44c0.75,1.22,1.4,2.48,2.02,3.76
				l8.15,6.5C654.22,748.07,651.26,744.56,647.72,741.81z"/>
			<path class="st0" d="M578.15,716.11l1.08,1.06c-0.64-1.01-1.28-2.02-1.93-3.04C577.59,714.79,577.87,715.45,578.15,716.11z"/>
			<path class="st0" d="M526.77,662.14c-1.3-0.97-2.6-1.94-3.91-2.9c-3-2.19-6.03-4.37-9.14-6.42l4.09,4.02
				c3.35,2.01,6.63,4.14,9.86,6.34C527.38,662.84,527.07,662.49,526.77,662.14z"/>
			<path class="st0" d="M511.93,642.32c-7.17-9.83-14.77-18.47-25.16-24.33c0.37,0.72,0.73,1.46,1.04,2.25
				c0.99,2.46-0.28,3.79-2.74,2.65c-2.86-1.33-5.69-4.18-6.88-7.12c-1.27-3.16-5.03-4.67-7.8-6.4c-1.02-0.64-2.02-1.33-3-2.04
				l28.96,28.44c6.48,2.85,12.56,6.48,18.41,10.5C513.83,644.95,512.88,643.63,511.93,642.32z"/>
			<path class="st0" d="M1372.83,357.65c15.1-4.7,25.44-18.04,41.4-20.79c17.08-2.95,31.18-11.58,44.58-22.22
				c0.75-0.6,1.85-0.48,3.04,0.07l2.32-1.66c3.36-5.04,6.23-10.4,9.82-15.29c4.7-6.39,10.28-10.36,17.24-14.04
				c6.31-3.34,12.02-6.86,17.52-11.13c-21.06,0.66-42.1,1.97-63.17,2.65c-23.05,0.74-46.12,0.06-69.16,1.07
				c-23.17,1.02-46.2,5.95-69.43,4.87c-20.88-0.97-41.29-5.08-61.66-9.53h-8.04c-15.18,4.7-31.14,5.34-46.9,2.88
				c0.69,1.51,1.01,3.09-0.54,3.16c-29.78,1.31-59.2,7.1-89,7.88c-28.58,0.75-55.44-6.74-83.28-11.94
				c-1.33-0.25-2.62-1.01-3.78-1.99h-26.16c-0.03,0.09-0.07,0.18-0.12,0.25c0.46,1.27,0.5,2.42-0.82,2.46
				c-15.85,0.47-25.84-20.04-29.92-32.69c-2.21-6.87-3.64-13.63-3.68-20.79l-0.08,0.13l-1.38-2.25c-0.47,4.27-1.33,8.45-2.87,12.46
				c-3.73,9.69-10.12,17.49-17.24,24.75l-9.64,15.67H495.25c-0.53,0.17-1.06,0.35-1.6,0.51c-28.17,8.74-57.45,6.4-86.43,3.64
				c-1.47-0.14-3.69-2.02-5.44-4.15h-17.72c34.47,5.26,71.48,19.98,88.57,50.78c0.14,0.25,0.31,0.6,0.47,0.97l10.48,6.04l11.81,8.99
				c12.62,0.8,24.2,6.83,33.7,14.94c7.63,6.51,13.91,14.42,20.83,21.66c6.22,6.5,13.37,14.34,22.87,15.2
				c3.6,0.32,11.69,11.06,6.44,10.59c-2.71-0.24-5.32-0.97-7.83-2.01l-0.17,0.2c1.53,5.18,0.1,10.67-3.88,14.26
				c-0.54,1.64-1.32,3.24-2.48,4.78c-0.5,0.67-1.51,0.59-2.69,0.06c-0.91,6.01-2.84,11.88-5.51,17.35
				c-4.28,8.77-10.03,16.95-16.81,23.97c-6.89,7.12-16.1,15.27-26.68,14.93c-1.09-0.04-2.12-0.4-3.09-0.96l-3.61,4.39l-11.32,13.55
				c3.54,2.06,7.98,7.33,6.2,9.7c-3.49,4.66-8.43,7.39-12.87,11c-4.47,3.63-7.81,8.15-10.66,13.13
				c-5.13,8.97-9.97,17.49-17.45,24.74c-7.27,7.05-16.35,13.73-25.96,16.34c2.5,2.05,4.67,4.6,7.16,6.61
				c1.78,1.44,4.91,4.59,4.65,7.25c6.47,5.99,12.06,12.83,18.99,18.36c3.18,2.54,6.53,4.71,9.71,7.01c0.54-0.35,1.42-0.33,2.51,0.15
				c15.15,6.59,27.26,17.86,37.19,30.89c5.17,6.79,9.75,14.04,15.13,20.67c5.49,4.12,10.92,8.31,16.23,12.67
				c9.06,7.44,17.94,15.24,25.81,23.95c6.68,7.39,12.78,17.35,21.65,22.32c2.75,1.54,5.32,3.83,6.69,6.74
				c10.82,0.31,21.73,0.09,32.11,3.43c13.85,4.45,23.19,14.96,32.03,25.82c14.76-2.71,29.83-1.73,44.79-1.51
				c12.66,0.19,25.35-0.08,37.9,1.37c0.36,0.04,0.71,0.08,1.07,0.13c0.86,0.11,1.71,0.22,2.57,0.35c-0.04-0.87,0.44-1.38,1.68-1.24
				c13.42,1.59,29.14,6.39,38.42,16.73c2.07,2.3,3.71,4.89,5.6,7.32c0.01,0,0.02,0,0.03,0c5.77,0.84,11.38,2.39,16.58,5.07
				c0.06,0.03,0.11,0.06,0.17,0.09c2.5,0.26,5.01,0.47,7.51,0.73c-0.25-0.34-0.49-0.7-0.72-1.06c-0.41-0.68-2.27-4.43-0.04-4.43
				c26.37-0.04,52.78-1.35,79.05,0.32c1.07-0.14,2.15-0.26,3.23-0.36c16.88-1.54,34.12-0.06,50.9,1.91
				c11.23,1.32,24.24,0.83,34.48,6.34c7.26-4.64,16.28-5.3,25.16-5.21c10.42,0.11,22.43,1.19,30.5-6.68
				c2.76-2.69,12.5,7.36,9.72,10.07c-2.81,2.74-5.96,4.5-9.32,5.64c0.54,0.55,1.03,1.12,1.46,1.65h5.17
				c0.01-0.41,0.15-0.72,0.47-0.86c2.79-1.3,5.61-2.65,8.47-3.96c-0.6-1.33-0.7-2.47,0.03-3.04c7.98-6.13,18.4-8.47,29.03-8.68
				c-0.49-0.9-0.79-1.75-0.83-2.46H796.92l-0.67-1.25h-0.01l-0.67-1.25h-0.01l-0.67-1.25h-0.01l-0.67-1.25h-0.01l-0.67-1.25h-0.01
				l-0.67-1.25h-0.01l-0.67-1.25h-0.01l-0.67-1.25h-0.01l-0.67-1.25h-0.01l-0.67-1.25h-0.01l-0.67-1.25h-0.01l-0.67-1.25h-0.01
				l-0.67-1.25h-0.01l-0.67-1.25h-0.01l-0.67-1.25h-0.01l-0.67-1.25h-0.01l-0.67-1.25h-0.01l-0.67-1.25h-0.01l-0.67-1.25h-0.01
				l-0.67-1.25h-0.01l-0.67-1.25h-0.01l-0.66-1.23H676.52l-33.31-26.55l-37.66,0.04l-2.5-2.46c0.99,1.74,2.15,4.42,0.13,4.42
				c-2.95,0-5.65-2.73-7.34-4.89c-0.46-0.59-3.83-5.82-1.01-5.82c0.83,0,1.64,0.22,2.42,0.58L455.25,568.75l65.85-78.84l78.76-95.85
				l-84.62-64.39c0.28,0,6.38,0.02,16.86,0.05l-6.63-3.75h-9.86l-61.33-35.33h474.04l-6.99,11.44l4.16-0.09l24.5-39.83v39.31l6-0.13
				v-39.19l23.79,38.68l4.8-0.1l-6.17-10.1h484.41l-124.73,89.14l1.46,0l-3.23,2.05l2.11,0l-3.23,2.05l2.11,0l-3.23,2.05l2.11,0
				l-3.23,2.05l2.11,0l-3.23,2.05l2.11,0l-3.23,2.05l2.11,0l-3.23,2.05l2.11,0l-3.23,2.05l2.11,0l-2.96,1.88l0.12,0.15l0.01,0.02
				l1.71,0l-1.13,0.71l140.73,169.89l-150.41,147.57l-53.39-0.05l-33.14,26.57h-105.7l-14.69,27.42h-1.46
				c5.9,2.75,11.51,6.82,17.01,10.58c0.11,0.01,0.21,0.01,0.32,0.03l0.88-1.63l9.32-17.4h101l5.21-4.18l27.92-22.39l46.7,0.04
				l7.77,0.01l5.55-5.45l68.96-67.66c-2.22-2-4.08-4.52-3.85-6.31c3.13-24.29,27.08-30.59,48.16-37.16l13.65-13.39
				c-1.58-2.04-2.45-4.2-1.46-5.46c8.83-11.31,18.63-21.78,27.62-32.86c-6.25-2.62-11.66-7.51-16.36-12.24
				c-7.06-7.09-14.24-14.26-20.14-22.36c-12-16.47-20.65-36.74-36.84-49.7c-1.84-1.47-5.13-4.8-4.63-7.5
				c0.51-2.75,4.95,0.55,5.78,1.21c0.79,0.63,1.55,1.28,2.31,1.93c-6.68-8.86-13.12-17.91-19.29-27.14
				c-0.07-0.03-0.13-0.06-0.2-0.09c-10.32-5.55-20.13-13.05-27.91-21.83c-7.11-8.02-15.32-18.63-13.36-30.08
				c0.09-0.55,0.44-0.8,0.94-0.83c0.31-6.51,2.53-12.91,6.84-17.89c4.8-5.55,10.76-9.32,17.17-12.38
				C1375.35,366.75,1369.49,358.69,1372.83,357.65z"/>
			<path class="st0" d="M585.84,717.26c1.01,1.69,2.05,3.35,3.15,4.94c0.09,0,0.18,0,0.29,0.01c0.99,0.1,1.99,0.19,2.98,0.27
				C590.01,720.86,587.88,719.11,585.84,717.26z"/>
			<path class="st0" d="M828.59,788.14c0.06,0.02,0.12,0.05,0.19,0.07c0.84,0.26,1.64,0.65,2.41,1.12h1.04
				c-1.47-0.82-2.94-1.65-4.42-2.48C828.1,787.29,828.37,787.72,828.59,788.14z"/>
			<path class="st0" d="M1480.32,552.55l-12.27-14.81C1471.43,543.14,1475.11,548.9,1480.32,552.55z"/>
			<path class="st0" d="M515.25,329.67L515.25,329.67C515.24,329.67,515.24,329.67,515.25,329.67"/>
		</g>
	</g>
	<polygon points="906.75,325.97 515.62,325.97 454.29,290.64 928.33,290.64 	"/>
	<polygon points="1003.85,325.97 1394.97,325.97 1456.3,290.64 982.27,290.64 	"/>
	<polygon points="902,340.21 950,368.97 950,262.16 	"/>
	<polygon points="1004,340.21 956,368.97 956,262.16 	"/>
	<polygon points="901,345.06 949.5,373.66 949.5,413.76 	"/>
	<polygon points="1006.25,345.06 957.75,373.66 957.75,413.76 	"/>
	<path d="M1395,330.62l-52.5,33.67h-50c-12.78-21.49-25.05-24.5-30.5-33.67C1283.69,330.62,1373.31,330.62,1395,330.62z"/>
	<polygon points="906.75,325.97 515.62,325.97 454.29,290.64 928.33,290.64 	"/>
	<polygon points="1004,325.97 1394,325.97 1455.33,290.64 983.67,290.64 	"/>
	<polygon points="902,340.21 950,368.97 950,262.16 	"/>
	<polygon points="1004,340.21 956,368.97 956,262.16 	"/>
	<polygon points="901,345.06 949.5,373.66 949.5,413.76 	"/>
	<polygon points="1006.25,345.06 957.75,373.66 957.75,413.76 	"/>
	<polygon points="628.58,369.5 507.51,536.42 711.96,536.42 721.76,567.67 457.01,567.92 606.01,386.59 579.13,369.55 	"/>
	<polygon points="1295.68,369.5 1416.76,536.42 1212.3,536.42 1202.51,567.67 1467.26,567.92 1318.25,386.59 1345.13,369.55 	"/>
	<path d="M884,364.35c-1.27,0,19.88-33.72,19.88-33.72c-21.69,0-363.84,0-385.54,0l53.09,33.72c6.85,0,58.64,0,65.49,0
		c-39.38,55.03-78.76,110.07-118.16,165.09c16.61,0,33.23,0,49.84,0c34.85-55.04,69.69-110.07,104.56-165.09
		C680.01,364.35,877.15,364.35,884,364.35z"/>
	<path d="M699.31,368.01c-30.62,53.81-61.26,107.62-91.88,161.43c16.51,0,33.02,0,49.53,0c26.22-53.81,52.45-107.62,78.66-161.43
		C723.53,368.01,711.42,368.01,699.31,368.01z"/>
	<path d="M499,311l69,39c0,0,372,111,375,111s253,10,253,10l85,4l47-88l134.83-96.36L499,311z"/>
	<path d="M826.56,385.25c0.32-5.45-0.67-9.65-2.92-12.58c-2.25-2.93-5.83-4.86-10.76-5.79c-4.93-0.92-11.38-1.38-19.4-1.38
		c-8.03,0-14.81,0.46-20.4,1.38c-5.59,0.92-10.48,2.85-14.69,5.79c-4.21,2.94-8.12,7.13-11.72,12.58
		c-3.59,5.45-7.49,12.8-11.63,22.02c-18.28,40.72-36.56,81.45-54.84,122.17c16,0,32,0,48.01,0c4.87-13.17,9.73-26.34,14.6-39.51
		c4.34,0,6.52,0,10.86,0c-4.62,13.17-9.23,26.34-13.84,39.51c16.61,0,33.23,0,49.84,0c10.91-40.72,21.83-81.45,32.74-122.17
		C824.88,398.04,826.24,390.7,826.56,385.25z M782.63,407.27c-5.04,14.38-10.08,28.77-15.12,43.15c-4.04,0-6.06,0-10.1,0
		c5.32-14.38,10.63-28.77,15.95-43.15c0.81-2.18,1.59-3.65,2.35-4.4c0.76-0.75,2.19-1.13,4.28-1.13c2.09,0,3.24,0.38,3.46,1.13
		C783.66,403.62,783.39,405.09,782.63,407.27z"/>
	<path d="M1150.11,368.01c24.05,53.81,48.11,107.62,72.15,161.43c16.51,0,33.02,0,49.53,0c-28.46-53.81-56.91-107.62-85.36-161.43
		C1174.32,368.01,1162.21,368.01,1150.11,368.01z"/>
	<path d="M1393.1,512.07c-2.67-5.54-7.52-12.92-14.49-22.15c-8.1-10.74-16.21-21.47-24.31-32.21c-3.92-5.2-7.38-9.6-10.36-13.21
		c-2.98-3.61-6.1-6.88-9.33-9.81c-3.23-2.93-6.79-5.58-10.65-7.93c-3.85-2.35-8.63-4.92-14.21-7.55c-3.23-1.52-6.88-3.15-10.86-4.91
		c-3.97-1.76-7.7-3.4-11.2-4.91c-3.5-1.51-6.47-2.77-8.94-3.77c-2.47-1.01-4.05-1.69-4.76-2.01c-5.2-2.38-9.03-4.32-11.27-5.91
		c-2.24-1.59-4.45-4.07-6.64-7.42c-5.33-8.15-7.99-12.23-13.31-20.38c-1.42-2.18-2.16-3.65-2.2-4.4c-0.05-0.75,0.88-1.13,2.81-1.13
		c1.92,0,3.36,0.38,4.32,1.13s2.17,2.22,3.63,4.4c5.64,8.39,7.53,11.65,13.17,20.04c0,0,40.33,4.41,41.54,5.09
		c-6.31-8.37-12.61-16.75-18.91-25.13c-5.7-7.62-11.68-15.1-18.18-22.02c-5.11-5.45-10.21-9.65-15.13-12.58
		c-4.92-2.93-10.09-4.86-15.51-5.79c-5.43-0.92-11.86-1.39-19.34-1.39c-7.62,0-13.47,0.46-17.61,1.39
		c-4.14,0.92-6.71,2.85-7.75,5.79c-1.04,2.94-0.51,7.13,1.62,12.58c2.14,5.45,5.81,12.8,11.08,22.02
		c4.49,7.85,6.73,11.78,11.21,19.63c2.68,4.7,5.12,8.77,7.33,12.21c2.21,3.44,4.49,6.5,6.85,9.19c2.36,2.68,4.99,5.16,7.89,7.42
		c2.9,2.26,6.5,4.47,10.59,6.67c3.01,1.62,6.75,3.52,11.23,5.54c4.47,2.01,8.93,3.94,13.37,5.79s8.44,3.48,11.97,4.91
		c3.54,1.43,5.81,2.3,6.7,2.64c4.02,1.56,7.12,3.19,9.07,4.53c1.96,1.34,3.79,3.27,5.48,5.79c8.01,11.91,16.02,23.82,24.02,35.74
		c1.47,2.18,2.17,3.65,2.09,4.4c-0.07,0.75-1.36,1.13-3.85,1.13c-2.5,0-4.29-0.38-5.36-1.13c-1.07-0.75-2.32-2.22-3.74-4.4
		c-8.6-13.17-17.2-26.34-25.8-39.51c-14,0-28,0-42,0c7.55,13.17,15.1,26.34,22.65,39.51c5.39,9.4,10.39,16.86,15.07,22.4
		c4.68,5.54,9.87,9.73,15.6,12.59c5.73,2.85,12.43,4.74,20.04,5.66c7.61,0.92,16.87,1.38,27.72,1.38c11.46,0,20.52-0.46,27.11-1.38
		c6.59-0.92,10.85-2.85,12.73-5.79C1396.18,521.85,1395.78,517.61,1393.1,512.07z"/>
	<polygon points="1199.25,364.34 1195.5,358.98 1190.5,346 1190.15,338.02 1191,331 1005.67,330.59 1025.33,364.34 	"/>
	<polygon points="1199.25,364.34 1195.5,358.98 1190.5,346 1190.15,338.02 1191,331 1002.67,330.59 1022.33,364.34 	"/>
	<polygon points="726.67,576.32 641.2,694.15 785.53,694.15 792.44,716.21 605.55,716.39 710.73,588.38 691.76,576.35 	"/>
	<polygon points="1197.59,576.32 1283.06,694.15 1138.73,694.15 1131.82,716.21 1318.71,716.39 1213.53,588.38 1232.5,576.35 	"/>
	<g>
		<path d="M1469.12,568.81l-140.73-169.89l1.13-0.71l-1.71,0l-0.14-0.17l2.96-1.88l-2.11,0l3.23-2.05l-2.11,0l3.23-2.05l-2.11,0
			l3.23-2.05l-2.11,0l3.23-2.05l-2.11,0l3.23-2.05l-2.11,0l3.23-2.05l-2.11,0l3.23-2.05l-2.11,0l3.23-2.05l-2.11,0l3.23-2.05
			l-2.11,0l3.23-2.05l-2.11,0l3.23-2.05l-2.11,0l3.23-2.05l-2.11,0l3.23-2.05l-49.45-0.04l1.49,2.05l-2.46,0l1.49,2.05l-2.46,0
			l1.49,2.05l-2.46,0l1.49,2.05l-1.24,0c-1.96-2.61-3.92-5.21-5.88-7.81c-5.7-7.62-11.68-15.1-18.18-22.02
			c-5.11-5.45-10.21-9.65-15.13-12.58c-4.92-2.93-10.09-4.86-15.51-5.79c-5.43-0.92-11.86-1.39-19.34-1.39
			c-7.62,0-13.47,0.46-17.61,1.39c-4.14,0.92-6.71,2.85-7.75,5.79c-0.16,0.44-0.26,0.91-0.35,1.41c-0.12,0.24-0.23,0.48-0.33,0.74
			c-0.16,0.44-0.26,0.91-0.35,1.41c-0.11,0.24-0.23,0.48-0.32,0.74c-0.16,0.44-0.26,0.91-0.35,1.41c-0.12,0.24-0.23,0.48-0.32,0.74
			c-0.16,0.44-0.26,0.91-0.35,1.4c-0.12,0.24-0.24,0.48-0.33,0.74c-0.16,0.44-0.26,0.91-0.35,1.4c-0.12,0.24-0.23,0.48-0.33,0.74
			c-0.16,0.44-0.26,0.91-0.35,1.4c-0.12,0.24-0.24,0.49-0.33,0.75c-0.15,0.44-0.26,0.91-0.35,1.4c-0.12,0.24-0.24,0.49-0.33,0.75
			c-0.15,0.43-0.26,0.91-0.35,1.4c-0.12,0.24-0.24,0.49-0.33,0.75c-0.15,0.43-0.26,0.91-0.34,1.4c-0.12,0.24-0.24,0.49-0.33,0.75
			c-0.15,0.43-0.26,0.9-0.34,1.39c-0.12,0.25-0.24,0.49-0.33,0.75c-0.15,0.43-0.26,0.9-0.34,1.39c-0.12,0.25-0.24,0.49-0.33,0.75
			c-0.15,0.43-0.26,0.9-0.34,1.39c-0.12,0.25-0.24,0.49-0.33,0.75c-0.15,0.43-0.26,0.9-0.34,1.39c-0.12,0.25-0.24,0.49-0.33,0.75
			c-0.15,0.43-0.26,0.9-0.34,1.39c-0.12,0.25-0.24,0.49-0.33,0.76c-0.15,0.43-0.26,0.9-0.34,1.39c-0.12,0.25-0.24,0.5-0.33,0.76
			c-0.06,0.16-0.09,0.35-0.14,0.52c-11.08,0-22.17,0-33.25,0c0.31,0.68,0.61,1.37,0.92,2.05c-0.49,0-0.98,0-1.46,0
			c0.31,0.68,0.61,1.37,0.92,2.05c-0.49,0-0.98,0-1.46,0c0.31,0.68,0.61,1.37,0.92,2.05c-0.49,0-0.98,0-1.46,0
			c0.31,0.68,0.61,1.37,0.92,2.05c-0.49,0-0.98,0-1.46,0c0.31,0.68,0.61,1.37,0.92,2.05c-0.49,0-0.98,0-1.46,0
			c0.31,0.68,0.61,1.37,0.92,2.05c-0.49,0-0.98,0-1.46,0c0.31,0.68,0.61,1.37,0.92,2.05c-0.49,0-0.98,0-1.46,0
			c0.31,0.68,0.61,1.37,0.92,2.05c-0.49,0-0.98,0-1.46,0c0.31,0.68,0.61,1.37,0.92,2.05c-0.49,0-0.98,0-1.46,0
			c0.31,0.68,0.61,1.37,0.92,2.05c-0.49,0-0.98,0-1.46,0c0.31,0.68,0.61,1.37,0.92,2.05c-0.49,0-0.98,0-1.46,0
			c0.31,0.68,0.61,1.37,0.92,2.05c-0.49,0-0.98,0-1.46,0c0.31,0.68,0.61,1.37,0.92,2.05c-0.49,0-0.98,0-1.46,0
			c0.31,0.68,0.61,1.37,0.92,2.05c-0.41,0-0.83,0-1.24,0c-3.87-9.58-7.74-19.15-11.61-28.73c-9.3,0-18.61,0-27.91,0l0-0.08
			l0.05-0.39h0.31l-0.24-0.34l-0.31-0.82l-0.02-0.5l0.05-0.44l-11.85-0.03l1.17,2l-2.26,0l1.17,2l-2.26,0l1.16,2l-1.96,0
			c-0.34-1.13-0.69-2.26-1.03-3.39c-12.11,0-24.21,0-36.32,0c0.15,0.68,0.3,1.37,0.46,2.05c-0.24,0-0.48,0-0.72,0
			c0.15,0.68,0.3,1.37,0.46,2.05c-0.24,0-0.48,0-0.72,0c0.15,0.68,0.3,1.37,0.46,2.05c-0.24,0-0.48,0-0.72,0
			c0.15,0.68,0.3,1.37,0.46,2.05c-0.24,0-0.48,0-0.72,0c0.15,0.68,0.3,1.37,0.46,2.05c-0.24,0-0.48,0-0.72,0
			c0.15,0.68,0.31,1.37,0.46,2.05c-0.24,0-0.48,0-0.72,0c0.15,0.68,0.3,1.37,0.46,2.05c-0.24,0-0.48,0-0.72,0
			c0.15,0.68,0.3,1.37,0.46,2.05c-0.24,0-0.48,0-0.72,0c0.15,0.68,0.3,1.37,0.46,2.05c-0.24,0-0.48,0-0.72,0
			c0.15,0.68,0.31,1.37,0.46,2.05c-0.24,0-0.48,0-0.72,0c0.15,0.68,0.3,1.37,0.46,2.05c-0.24,0-0.48,0-0.72,0
			c0.15,0.68,0.3,1.37,0.46,2.05c-0.24,0-0.48,0-0.72,0c0.15,0.68,0.3,1.37,0.46,2.05c-0.24,0-0.48,0-0.72,0
			c0.15,0.68,0.3,1.37,0.46,2.05c-0.24,0-0.48,0-0.72,0c0.15,0.68,0.3,1.37,0.46,2.05c-0.24,0-0.48,0-0.72,0
			c0.15,0.68,0.31,1.37,0.46,2.05c-0.24,0-0.48,0-0.72,0c0.15,0.68,0.3,1.37,0.46,2.05c-0.24,0-0.48,0-0.72,0
			c0.15,0.68,0.3,1.37,0.46,2.05c-0.24,0-0.48,0-0.72,0c0.15,0.68,0.3,1.37,0.46,2.05c-0.24,0-0.48,0-0.72,0
			c0.15,0.68,0.3,1.37,0.46,2.05c-0.24,0-0.48,0-0.72,0c0.15,0.68,0.3,1.37,0.46,2.05c-0.24,0-0.48,0-0.72,0
			c0.15,0.68,0.31,1.37,0.46,2.05c-0.24,0-0.48,0-0.72,0c0.15,0.68,0.3,1.37,0.46,2.05c-0.24,0-0.48,0-0.72,0
			c0.15,0.68,0.3,1.37,0.46,2.05c-0.24,0-0.48,0-0.72,0c0.15,0.68,0.3,1.37,0.46,2.05c-0.19,0-0.38,0-0.57,0
			c-0.13-0.72-0.27-1.42-0.39-2.11c-0.26-1.39-0.52-2.76-0.79-4.23c-0.32-1.71-0.66-3.54-1.07-5.71
			c-1.73-9.23-3.71-16.61-5.89-22.15c-2.18-5.54-5-9.73-8.42-12.58c-3.43-2.85-7.73-4.74-12.92-5.66
			c-5.2-0.92-11.71-1.38-19.59-1.38L954.25,424c-1.06-1.06-48.61-67.01-48.61-67.01c0.17-0.28,0.27-0.44,0.27-0.44
			c-0.17,0-0.37,0-0.58,0l-0.5-0.7c0.58-0.93,0.91-1.46,0.91-1.46c-0.39,0-0.91,0-1.52,0c0.85-1.36,1.35-2.16,1.35-2.16
			c-0.39,0-0.91,0-1.52,0c0.85-1.36,1.35-2.16,1.35-2.16c-0.39,0-0.91,0-1.52,0c0.85-1.36,1.35-2.16,1.35-2.16c-0.4,0-0.91,0-1.52,0
			c0.85-1.36,1.35-2.16,1.35-2.16c-0.4,0-0.91,0-1.52,0c0.85-1.36,1.35-2.16,1.35-2.16c-0.4,0-0.91,0-1.52,0
			c0.85-1.36,1.35-2.16,1.35-2.16c-0.4,0-0.85-10.8-0.85-10.8c-45.44,0-390.75-0.96-388.62-0.96l85.42,65L455.25,568.75
			l150.3,147.64l37.66-0.04l33.31,26.55h105.43l0.66,1.23h0.01l0.67,1.25h0.01l0.67,1.25h0.01l0.67,1.25h0.01l0.67,1.25h0.01
			l0.67,1.25h0.01l0.67,1.25h0.01l0.67,1.25h0.01l0.67,1.25h0.01l0.67,1.25h0.01l0.67,1.25h0.01l0.67,1.25h0.01l0.67,1.25h0.01
			l0.67,1.25h0.01l0.67,1.25h0.01l0.67,1.25h0.01l0.67,1.25h0.01l0.67,1.25h0.01l0.67,1.25h0.01l0.67,1.25h0.01l0.67,1.25h0.01
			l0.67,1.25h157.15h0.57h157.15l14.69-27.42h105.7l33.14-26.57l53.39,0.05L1469.12,568.81z M1089.03,373.39l-0.26,0
			c-0.1-0.31-0.19-0.62-0.29-0.94L1089.03,373.39z"/>
		<polygon points="1101.24,349.7 1101.21,349.66 1101.18,349.57 1101.18,349.52 1101.18,349.47 1099.87,349.46 1100,349.7 		"/>
		<polygon points="1101.52,351.93 1101.47,351.85 1101.4,351.67 1101.4,351.56 1101.41,351.46 1098.78,351.46 1099.05,351.93 		"/>
		<polygon points="1101.81,354.16 1101.73,354.05 1101.62,353.77 1101.62,353.61 1101.63,353.46 1097.68,353.45 1098.1,354.16 		"/>
		<polygon points="1102.09,356.39 1101.98,356.24 1101.84,355.88 1101.83,355.65 1101.86,355.46 1096.59,355.44 1097.14,356.39 		
			"/>
		<polygon points="1102.37,358.62 1102.24,358.43 1102.07,357.98 1102.05,357.7 1102.08,357.45 1095.5,357.44 1096.19,358.62 		"/>
		<polygon points="1102.65,360.85 1102.5,360.62 1102.29,360.08 1102.27,359.74 1102.31,359.45 1094.41,359.43 1095.24,360.85 		"/>
		<polygon points="1102.94,363.08 1102.75,362.82 1102.51,362.18 1102.49,361.79 1102.53,361.45 1093.32,361.43 1094.28,363.08 		
			"/>
		<polygon points="1103.22,365.31 1103.01,365.01 1102.73,364.28 1102.71,363.84 1102.76,363.44 1092.23,363.42 1093.33,365.31 		
			"/>
	</g>
	<path class="st6" d="M1398.51,330.62l-53.01,33.67h-53c-6.68-11.22-24.49-22.45-31.17-33.67
		C1283.03,330.62,1376.82,330.62,1398.51,330.62z"/>
	<g>
		<polygon class="st1" points="1169.32,573.47 1149.7,615.51 951.52,615.51 950.72,615.51 752.53,615.51 732.92,573.47 
			515.12,573.47 557.55,605.49 707.29,605.49 728.1,644.34 950.72,644.34 951.52,644.34 1174.13,644.34 1194.95,605.49 
			1344.69,605.49 1387.12,573.47 		"/>
		<polygon class="st1" points="628.58,369.5 507.51,536.42 711.96,536.42 721.76,567.67 457.01,567.92 606.01,386.59 579.13,369.55 
					"/>
		<polygon class="st1" points="1295.68,369.5 1416.76,536.42 1212.3,536.42 1202.51,567.67 1467.26,567.92 1318.25,386.59 
			1345.13,369.55 		"/>
		<polygon class="st6" points="906.75,325.97 515.62,325.97 454.29,290.64 928.33,290.64 		"/>
		<polygon class="st6" points="1000,325.97 1401.5,325.97 1462.83,290.64 978.42,290.64 		"/>
		<g>
			<polygon class="st1" points="900.62,340.55 951,258.62 951,370.73 			"/>
			<path d="M950,262.16v106.81l-48-28.76L950,262.16 M952,255.09l-3.7,6.02l-48,78.05l-1.06,1.72l1.74,1.04l48,28.76l3.03,1.81
				v-3.53V262.16V255.09L952,255.09z"/>
		</g>
		<g>
			<polygon class="st1" points="955,258.62 1005.38,340.55 955,370.73 			"/>
			<path d="M956,262.16l48,78.05l-48,28.76V262.16 M954,255.09v7.07v106.81v3.53l3.03-1.81l48-28.76l1.74-1.04l-1.06-1.72l-48-78.05
				L954,255.09L954,255.09z"/>
		</g>
		<polygon class="st1" points="901,345.06 949.5,373.66 949.5,413.76 		"/>
		<polygon class="st1" points="1006.25,345.06 957.75,373.66 957.75,413.76 		"/>
		<g>
			<path class="st6" d="M884,364.35c-1.27,0,19.88-33.72,19.88-33.72c-21.69,0-363.84,0-385.54,0l53.09,33.72
				c6.85,0,58.64,0,65.49,0c-39.38,55.03-78.76,110.07-118.16,165.09c16.61,0,33.23,0,49.84,0
				c34.85-55.04,69.69-110.07,104.56-165.09C680.01,364.35,877.15,364.35,884,364.35z"/>
			<path class="st6" d="M699.31,368.01c-30.62,53.81-61.26,107.62-91.88,161.43c16.51,0,33.02,0,49.53,0
				c26.22-53.81,52.45-107.62,78.66-161.43C723.53,368.01,711.42,368.01,699.31,368.01z"/>
			<path class="st6" d="M826.56,385.25c0.32-5.45-0.67-9.65-2.92-12.58c-2.25-2.93-5.83-4.86-10.76-5.79
				c-4.93-0.92-11.38-1.38-19.4-1.38c-8.03,0-14.81,0.46-20.4,1.38c-5.59,0.92-10.48,2.85-14.69,5.79
				c-4.21,2.94-8.12,7.13-11.72,12.58c-3.59,5.45-7.49,12.8-11.63,22.02c-18.28,40.72-36.56,81.45-54.84,122.17c16,0,32,0,48.01,0
				c4.87-13.17,9.73-26.34,14.6-39.51c4.34,0,6.52,0,10.86,0c-4.62,13.17-9.23,26.34-13.84,39.51c16.61,0,33.23,0,49.84,0
				c10.91-40.72,21.83-81.45,32.74-122.17C824.88,398.04,826.24,390.7,826.56,385.25z M782.63,407.27
				c-5.04,14.38-10.08,28.77-15.12,43.15c-4.04,0-6.06,0-10.1,0c5.32-14.38,10.63-28.77,15.95-43.15c0.81-2.18,1.59-3.65,2.35-4.4
				c0.76-0.75,2.19-1.13,4.28-1.13c2.09,0,3.24,0.38,3.46,1.13C783.66,403.62,783.39,405.09,782.63,407.27z"/>
			<path class="st6" d="M897.43,431.29c-0.41,0-0.61,0-1.02,0c-3.28-21.04-5.98-42.09-8.1-63.28c-13,0-26.01,0-39.01,0
				c-12.47,53.97-24.95,107.94-37.42,161.92c13.67,0,27.34,0,41,0c5.25-32.12,10.5-64.25,15.74-96.37c0.41,0,0.62,0,1.03,0
				c1.34,32.06,3.73,63.98,7.15,95.88c17.12,0,34.25,0,51.37,0c2.1-53.81,4.21-78.29,6.31-132.1L904.22,355
				C901.95,376.09,899.69,410.2,897.43,431.29z"/>
			<path class="st6" d="M1180.32,489.93c-16.42-40.64-32.84-81.28-49.26-121.92c-11.81,0-23.61,0-35.42,0
				c13.18,40.64,26.34,81.28,39.52,121.92c0.71,2.18,0.89,3.65,0.56,4.4c-0.33,0.75-1.75,1.13-4.25,1.13c-2.5,0-4.16-0.38-4.96-1.13
				c-0.81-0.75-1.54-2.22-2.21-4.4c-12.39-40.64-24.79-81.28-37.18-121.92c-12.11,0-24.21,0-36.32,0
				c9.07,40.64,18.14,81.28,27.2,121.92c2.06,9.23,4.43,16.61,7.17,22.15c2.74,5.54,6.48,9.78,11.23,12.71
				c4.75,2.93,10.84,4.87,18.24,5.79c7.39,0.92,16.65,1.38,27.7,1.38c11.05,0,20.01-0.46,26.83-1.38c6.81-0.92,11.7-2.85,14.61-5.79
				c2.91-2.93,3.99-7.17,3.26-12.71C1186.31,506.54,1184.05,499.16,1180.32,489.93z"/>
			<path class="st6" d="M1150.11,368.01c24.05,53.81,48.11,107.62,72.15,161.43c16.51,0,33.02,0,49.53,0
				c-28.46-53.81-56.91-107.62-85.36-161.43C1174.32,368.01,1162.21,368.01,1150.11,368.01z"/>
			<path class="st6" d="M1393.1,512.07c-2.67-5.54-7.52-12.92-14.49-22.15c-8.1-10.74-16.21-21.47-24.31-32.21
				c-3.92-5.2-7.38-9.6-10.36-13.21c-2.98-3.61-6.1-6.88-9.33-9.81c-3.23-2.93-6.79-5.58-10.65-7.93
				c-3.85-2.35-8.63-4.92-14.21-7.55c-3.23-1.52-6.88-3.15-10.86-4.91c-3.97-1.76-7.7-3.4-11.2-4.91c-3.5-1.51-6.47-2.77-8.94-3.77
				c-2.47-1.01-4.05-1.69-4.76-2.01c-5.2-2.38-9.03-4.32-11.27-5.91c-2.24-1.59-4.45-4.07-6.64-7.42
				c-5.33-8.15-7.99-12.23-13.31-20.38c-1.42-2.18-2.16-3.65-2.2-4.4c-0.05-0.75,0.88-1.13,2.81-1.13c1.92,0,3.36,0.38,4.32,1.13
				s2.17,2.22,3.63,4.4c5.64,8.39,7.53,11.65,13.17,20.04c0,0,40.33,4.41,41.54,5.09c-6.31-8.37-12.61-16.75-18.91-25.13
				c-5.7-7.62-11.68-15.1-18.18-22.02c-5.11-5.45-10.21-9.65-15.13-12.58c-4.92-2.93-10.09-4.86-15.51-5.79
				c-5.43-0.92-11.86-1.39-19.34-1.39c-7.62,0-13.47,0.46-17.61,1.39c-4.14,0.92-6.71,2.85-7.75,5.79
				c-1.04,2.94-0.51,7.13,1.62,12.58c2.14,5.45,5.81,12.8,11.08,22.02c4.49,7.85,6.73,11.78,11.21,19.63
				c2.68,4.7,5.12,8.77,7.33,12.21c2.21,3.44,4.49,6.5,6.85,9.19c2.36,2.68,4.99,5.16,7.89,7.42c2.9,2.26,6.5,4.47,10.59,6.67
				c3.01,1.62,6.75,3.52,11.23,5.54c4.47,2.01,8.93,3.94,13.37,5.79s8.44,3.48,11.97,4.91c3.54,1.43,5.81,2.3,6.7,2.64
				c4.02,1.56,7.12,3.19,9.07,4.53c1.96,1.34,3.79,3.27,5.48,5.79c8.01,11.91,16.02,23.82,24.02,35.74c1.47,2.18,2.17,3.65,2.09,4.4
				c-0.07,0.75-1.36,1.13-3.85,1.13c-2.5,0-4.29-0.38-5.36-1.13c-1.07-0.75-2.32-2.22-3.74-4.4c-8.6-13.17-17.2-26.34-25.8-39.51
				c-14,0-28,0-42,0c7.55,13.17,15.1,26.34,22.65,39.51c5.39,9.4,10.39,16.86,15.07,22.4c4.68,5.54,9.87,9.73,15.6,12.59
				c5.73,2.85,12.43,4.74,20.04,5.66c7.61,0.92,16.87,1.38,27.72,1.38c11.46,0,20.52-0.46,27.11-1.38
				c6.59-0.92,10.85-2.85,12.73-5.79C1396.18,521.85,1395.78,517.61,1393.1,512.07z"/>
			<path class="st6" d="M1051.5,456.47l-0.49-2.37c-0.24-1.27-0.47-2.54-0.71-3.8c-0.03,0-0.05,0-0.08,0l-2.65-12.76l-46.65-0.4
				l1.83,19.17l7.55,0.03c1.41,12.88,2.83,25.75,4.25,38.63c-1.12,0.34-3.12,0.5-6,0.5c-2.7,0-4.36-0.33-5-1
				c-0.63-0.67-1.06-2.18-1.27-4.53c-2.46-27.55-4.91-55.11-7.37-82.66c-0.19-2.18-0.08-3.65,0.33-4.4
				c0.41-0.75,1.67-1.13,3.76-1.13c2.09,0,3.42,0.38,3.98,1.13c0.56,0.75,0.97,2.23,1.21,4.4c0.79,7.25,1.18,10.87,1.96,18.12
				c13.17,0,26.33,0,39.5,0c-1.36-7.25-2.04-10.87-3.39-18.12c-1.73-9.23-3.71-16.61-5.89-22.15c-2.18-5.54-5-9.73-8.42-12.58
				c-3.43-2.85-7.73-4.74-12.92-5.66c-5.2-0.92-11.71-1.38-19.59-1.38l-40.04,56.76c0.2,27.55,0.41,40.12,0.61,67.68
				c0.07,8.9,0.84,16.07,2.38,21.52c1.54,5.45,4.46,9.69,8.78,12.71c4.32,3.02,10.43,5.12,18.22,6.17
				c10.09,1.36,20.4,1.6,30.49,1.64c10.33,0.04,20.91-0.2,31.33-0.88c8.79-0.58,14.77-1.13,17.94-1.63
				c-4.55-24.32-9.11-48.65-13.66-72.97H1051.5z"/>
			<polygon class="st6" points="1199.25,364.34 1195.5,358.98 1190.5,346 1190.15,338.02 1191,331 1005.67,330.59 1025.33,364.34 
							"/>
		</g>
	</g>
	<g>
		<g>
			<path class="st7" d="M774.9,1177.62c3.11,5.81,4.66,8.71,7.76,14.52c10.26,0,15.39,0,25.66,0c1.85,4.08,2.78,6.12,4.63,10.21
				c-9.93,0-14.9,0-24.84,0c4.28,8.01,6.42,12.01,10.7,20.02c-4.64,0-6.97,0-11.61,0c-10.53-18.32-21.06-36.63-31.59-54.95
				c15.05,0,30.1,0,45.15,0c1.81,4.08,2.71,6.12,4.52,10.2C795.16,1177.62,785.03,1177.62,774.9,1177.62z"/>
			<path class="st7" d="M810.15,1167.41c5.53,0,8.3,0,13.83,0c6.88,18.32,13.76,36.63,20.64,54.95c-4.64,0-6.97,0-11.61,0
				C825.39,1204.04,817.77,1185.73,810.15,1167.41z"/>
			<path class="st7" d="M892.93,1167.41c3.2,18.32,6.4,36.63,9.6,54.95c-3.81,0-5.72,0-9.53,0c-11.14-11.63-22.87-22.6-34.84-33.36
				c3.28,11.12,6.55,22.24,9.83,33.36c-4.59,0-6.88,0-11.47,0c-6.12-18.32-12.25-36.63-18.37-54.95c4.57,0,6.86,0,11.44,0
				c12.62,10.76,25.02,21.74,36.86,33.36c-2.39-11.12-4.77-22.24-7.16-33.36C884.73,1167.41,887.47,1167.41,892.93,1167.41z"/>
			<path class="st7" d="M947.24,1210.59c-9.7,0-14.54,0-24.24,0c-1.38,4.71-2.03,7.07-3.27,11.77c-4.76,0-7.14,0-11.9,0
				c4.71-18.77,10.98-36.94,18.03-54.95c5.46,0,8.19,0,13.65,0c9.17,17.96,17.35,36.13,24.57,54.95c-4.87,0-7.31,0-12.18,0
				C950.11,1217.65,949.17,1215.3,947.24,1210.59z M943.13,1200.93c-3.68-8.42-5.64-12.62-9.79-21.04
				c-3.15,8.41-4.61,12.62-7.3,21.04C932.87,1200.93,936.29,1200.93,943.13,1200.93z"/>
			<path class="st7" d="M1027.21,1167.41c-3.97,18.32-7.92,36.64-11.9,54.95c-3.81,0-5.72,0-9.53,0
				c-6.57-11.6-14.02-22.53-21.78-33.36c-1.08,11.12-2.15,22.24-3.23,33.36c-4.59,0-6.88,0-11.46,0
				c1.05-18.32,2.09-36.63,3.13-54.95c4.57,0,6.86,0,11.43,0c8.4,10.82,16.5,21.75,23.79,33.36c1.96-11.12,3.93-22.24,5.9-33.36
				C1019.02,1167.41,1021.75,1167.41,1027.21,1167.41z"/>
			<path class="st7" d="M1038.15,1219.65c-3.46-2.43-5.86-5.81-7.21-10.13c-1.35-4.32-1.43-9.2-0.09-14.64
				c1.34-5.44,3.85-10.32,7.68-14.64c3.83-4.32,8.54-7.69,14.14-10.13s11.55-3.65,17.71-3.65c5.19,0,9.6,0.84,13.12,2.51
				c3.52,1.67,6.03,4.08,7.51,7.22c-4.7,3.01-7.01,4.52-11.56,7.54c-2.19-4.29-6.3-6.44-12.1-6.44c-3.59,0-7.05,0.75-10.32,2.24
				s-6.06,3.57-8.39,6.24c-2.32,2.67-3.94,5.71-4.92,9.11c-0.98,3.4-1.11,6.44-0.45,9.1c0.66,2.67,2.03,4.75,4.1,6.24
				c2.07,1.49,4.68,2.24,7.9,2.24c5.19,0,10.3-2.17,15.57-6.52c1.98,3.01,2.94,4.52,4.77,7.54c-3.78,3.19-7.76,5.63-11.95,7.3
				c-4.2,1.67-8.41,2.51-12.75,2.51C1045.81,1223.3,1041.61,1222.09,1038.15,1219.65z"/>
			<path class="st7" d="M1124.47,1212.16c-2.35,4.08-3.52,6.12-5.87,10.2c-12.95,0-25.9,0-38.85,0
				c8.06-18.31,16.12-36.63,24.18-54.95c15.05,0,30.1,0,45.15,0c-2.33,4.08-3.5,6.12-5.83,10.2c-10.16,0-20.31,0-30.47,0
				c-2.29,4.77-3.43,7.16-5.73,11.93c10.38,0,15.57,0,25.95,0c-2.22,3.96-3.33,5.93-5.55,9.89c-10.06,0-15.09,0-25.15,0
				c-2.44,5.09-3.66,7.63-6.11,12.72C1105.62,1212.16,1115.04,1212.16,1124.47,1212.16z"/>
		</g>
	</g>
	<g>
		<g>
			<path class="st8" d="M728.59,643.33c0,0,3.42,6.15,8.54,15.37c5.1,9.24,11.9,21.55,18.7,33.86c3.41,6.15,6.84,12.29,9.99,18.09
				c1.53,2.92,3.06,5.71,4.43,8.41c1.38,2.69,2.68,5.23,3.88,7.58c1.21,2.34,2.25,4.53,3.21,6.45c0.96,1.92,1.78,3.6,2.43,4.99
				c1.34,2.78,2.07,4.38,2.07,4.38l-0.18,0.09c0,0-0.93-1.49-2.51-4.14c-0.8-1.32-1.75-2.93-2.82-4.78
				c-1.07-1.86-2.31-3.93-3.6-6.24c-1.29-2.3-2.69-4.79-4.18-7.42c-1.5-2.63-2.98-5.45-4.57-8.34c-3.09-5.82-6.31-12.08-9.56-18.31
				c-6.51-12.47-13.02-24.94-17.91-34.29c-4.86-9.36-8.1-15.61-8.1-15.61L728.59,643.33z"/>
		</g>
		<g>
			<path class="st9" d="M561,672.25"/>
		</g>
		<g>
			<path class="st9" d="M518.42,574.88"/>
		</g>
	</g>
	<g>
		<g>
			<path class="st9" d="M575.5,822.93"/>
		</g>
		<g>
			<path class="st9" d="M527.17,709.87"/>
		</g>
		<g>
			<g>
				<path class="st8" d="M728.59,643.33c0,0,3.42,6.15,8.54,15.37c5.1,9.24,11.9,21.55,18.7,33.86c3.41,6.15,6.84,12.29,9.99,18.09
					c1.53,2.92,3.06,5.71,4.43,8.41c1.38,2.69,2.68,5.23,3.88,7.58c1.21,2.34,2.25,4.53,3.21,6.45c0.96,1.92,1.78,3.6,2.43,4.99
					c1.34,2.78,2.07,4.38,2.07,4.38l-0.18,0.09c0,0-0.93-1.49-2.51-4.14c-0.8-1.32-1.75-2.93-2.82-4.78
					c-1.07-1.86-2.31-3.93-3.6-6.24c-1.29-2.3-2.69-4.79-4.18-7.42c-1.5-2.63-2.98-5.45-4.57-8.34c-3.09-5.82-6.31-12.08-9.56-18.31
					c-6.51-12.47-13.02-24.94-17.91-34.29c-4.86-9.36-8.1-15.61-8.1-15.61L728.59,643.33z"/>
			</g>
			<g>
				<path class="st8" d="M518.49,574.81c0,0,31.46,35.14,62.92,70.28c7.86,8.79,15.72,17.58,23.09,25.81
					c3.63,4.17,7.19,8.16,10.48,12c3.31,3.84,6.43,7.47,9.32,10.82c2.89,3.35,5.49,6.46,7.82,9.2c2.33,2.74,4.34,5.13,5.99,7.12
					c3.29,3.97,5.17,6.25,5.17,6.25l-0.15,0.13c0,0-2.02-2.15-5.55-5.91c-1.77-1.88-3.89-4.18-6.32-6.83
					c-2.42-2.65-5.19-5.62-8.15-8.9c-2.96-3.28-6.17-6.84-9.57-10.6c-3.41-3.75-6.92-7.77-10.6-11.9
					c-7.25-8.34-14.99-17.24-22.73-26.13c-30.94-35.6-61.87-71.2-61.87-71.2L518.49,574.81z"/>
			</g>
			<g>
				<path class="st8" d="M545.49,589.81c0,0,33.04,38.03,66.09,76.06c8.26,9.51,16.51,19.02,24.25,27.94
					c3.82,4.5,7.55,8.82,11.01,12.98c3.48,4.15,6.76,8.07,9.8,11.69c3.04,3.62,5.77,6.98,8.22,9.93c2.45,2.96,4.57,5.55,6.3,7.69
					c3.46,4.29,5.44,6.74,5.44,6.74l-0.15,0.13c0,0-2.12-2.33-5.83-6.41c-1.85-2.04-4.09-4.53-6.63-7.4
					c-2.54-2.87-5.45-6.09-8.55-9.64c-3.11-3.55-6.48-7.4-10.05-11.47c-3.58-4.06-7.27-8.41-11.14-12.87
					c-7.62-9.02-15.76-18.63-23.89-28.25c-32.51-38.49-65.02-76.97-65.02-76.97L545.49,589.81z"/>
			</g>
		</g>
		<g>
			<g>
				<path class="st8" d="M1170.09,650.09c0,0-3.24,6.24-8.1,15.61c-4.88,9.35-11.4,21.82-17.91,34.29
					c-3.25,6.24-6.47,12.49-9.56,18.31c-1.59,2.89-3.07,5.71-4.57,8.34c-1.48,2.63-2.88,5.12-4.18,7.42
					c-1.29,2.3-2.53,4.38-3.6,6.24c-1.07,1.86-2.02,3.47-2.82,4.78c-1.58,2.65-2.51,4.14-2.51,4.14l-0.18-0.09
					c0,0,0.73-1.6,2.07-4.38c0.66-1.39,1.48-3.07,2.43-4.99c0.96-1.92,2-4.1,3.21-6.45c1.2-2.35,2.51-4.89,3.88-7.58
					c1.37-2.7,2.89-5.49,4.43-8.41c3.15-5.79,6.58-11.93,9.99-18.08c6.8-12.31,13.6-24.63,18.7-33.86
					c5.12-9.22,8.54-15.37,8.54-15.37L1170.09,650.09z"/>
			</g>
			<g>
				<path class="st8" d="M1383.58,575.56c0,0-7.31,8.87-18.27,22.17c-10.98,13.28-25.63,30.99-40.28,48.7
					c-7.32,8.85-14.65,17.71-21.51,26.01c-3.49,4.11-6.81,8.11-10.04,11.84c-3.22,3.74-6.26,7.28-9.07,10.55
					c-2.8,3.27-5.43,6.22-7.73,8.87c-2.3,2.64-4.32,4.93-6,6.8c-3.35,3.75-5.27,5.89-5.27,5.89l-0.15-0.13c0,0,1.78-2.26,4.88-6.21
					c1.55-1.98,3.46-4.36,5.66-7.09c2.2-2.72,4.65-5.82,7.39-9.15c2.73-3.33,5.69-6.95,8.82-10.77c3.12-3.83,6.48-7.8,9.92-11.95
					c6.98-8.2,14.43-16.95,21.88-25.7c14.9-17.5,29.79-35,40.97-48.12c11.19-13.11,18.66-21.84,18.66-21.84L1383.58,575.56z"/>
			</g>
			<g>
				<path class="st8" d="M1344.33,604.31c0,0-6.92,8.71-17.29,21.78c-10.39,13.05-24.25,30.45-38.11,47.85
					c-6.93,8.7-13.86,17.4-20.35,25.56c-3.3,4.03-6.45,7.97-9.51,11.64c-3.05,3.68-5.93,7.16-8.6,10.37
					c-2.66,3.21-5.15,6.12-7.33,8.71c-2.18,2.59-4.1,4.84-5.69,6.69c-3.18,3.68-5,5.79-5,5.79l-0.16-0.12c0,0,1.68-2.22,4.61-6.1
					c1.47-1.94,3.27-4.29,5.35-6.96c2.08-2.67,4.4-5.72,6.98-8.99c2.58-3.28,5.38-6.82,8.34-10.58c2.95-3.76,6.13-7.67,9.39-11.74
					c6.62-8.06,13.67-16.66,20.73-25.25c14.11-17.19,28.22-34.39,38.81-47.28c10.61-12.88,17.67-21.46,17.67-21.46L1344.33,604.31z"
					/>
			</g>
		</g>
	</g>
	<g>
		<g>
			<path class="st5" d="M777.07,601.98c-2.69,0-5.06-0.7-7.13-2.09c-2.07-1.4-3.89-3.35-5.47-5.87c-1.57-2.52-2.99-5.49-4.25-8.91
				c-2.67-7.3-4.01-10.95-6.68-18.25c-1.28-3.5-2.04-6.51-2.26-9.03c-0.22-2.52,0.29-4.47,1.52-5.84c1.23-1.38,3.34-2.06,6.32-2.06
				c2.91,0,5.39,0.62,7.42,1.84c2.03,1.23,3.75,2.95,5.14,5.16c1.39,2.21,2.54,4.75,3.47,7.62c0.57,1.75,0.85,2.62,1.42,4.38
				c-3.28,0-4.91,0-8.19,0c-0.69-2.03-1.03-3.04-1.72-5.06c-0.34-1-0.71-1.96-1.1-2.88c-0.39-0.92-0.88-1.67-1.47-2.28
				c-0.59-0.6-1.34-0.91-2.27-0.91c-0.89,0-1.44,0.31-1.66,0.94c-0.21,0.63-0.21,1.41,0.01,2.34c0.22,0.94,0.51,1.93,0.87,2.97
				c3.34,9.53,5,14.29,8.34,23.81c0.39,1.12,0.82,2.15,1.29,3.09c0.46,0.94,0.99,1.69,1.59,2.25c0.6,0.56,1.28,0.85,2.05,0.85
				c0.83,0,1.32-0.3,1.48-0.91c0.15-0.6,0.11-1.39-0.13-2.34c-0.24-0.96-0.52-1.94-0.86-2.94c-0.72-2.13-1.08-3.19-1.8-5.31
				c3.19,0,4.79,0,7.98,0c0.57,1.75,0.85,2.62,1.42,4.37c0.93,2.88,1.46,5.46,1.59,7.72c0.13,2.27-0.33,4.06-1.38,5.37
				C781.58,601.33,779.73,601.98,777.07,601.98z"/>
			<path class="st5" d="M791.36,601.24c-5.32-16.88-10.65-33.75-15.97-50.62c4.32,0,6.48,0,10.8,0c2.65,0,5.05,0.38,7.19,1.13
				c2.15,0.75,4.02,2.09,5.63,4.03c1.6,1.94,2.88,4.68,3.84,8.22c0.57,2.08,0.95,3.94,1.14,5.56c0.19,1.62,0.12,3.03-0.22,4.22
				c-0.34,1.19-1.01,2.18-2.02,2.97c4.8,9.8,7.15,14.7,11.75,24.5c-3.25,0-4.88,0-8.13,0c-4.17-9.08-6.29-13.61-10.6-22.69
				c-0.94,0-1.41,0-2.34,0c2.72,9.07,4.08,13.61,6.8,22.69C796.07,601.24,794.5,601.24,791.36,601.24z M790.49,572.11
				c0.93,0,1.4,0,2.33,0c1.18,0,2.01-0.28,2.5-0.84c0.49-0.56,0.71-1.38,0.67-2.44c-0.04-1.06-0.27-2.34-0.7-3.84
				c-0.62-2.17-1.4-3.85-2.36-5.06c-0.95-1.21-2.24-1.81-3.87-1.81c-1.11,0-1.66,0-2.77,0
				C787.98,563.71,788.82,566.51,790.49,572.11z"/>
			<path class="st5" d="M817.58,601.24c-4.43-16.88-8.86-33.75-13.29-50.62c3.47,0,5.2,0,8.67,0c4.16,16.88,8.32,33.75,12.48,50.62
				C822.3,601.24,820.73,601.24,817.58,601.24z"/>
			<path class="st5" d="M830.76,601.24c-3.98-16.88-7.96-33.75-11.94-50.62c5.27,0,7.9,0,13.17,0c2.36,0,4.41,0.57,6.16,1.72
				c1.74,1.15,3.19,2.81,4.35,5c1.16,2.19,2.03,4.84,2.63,7.97c0.76,3.92,0.85,6.91,0.3,8.97c-0.55,2.06-1.56,3.49-3.02,4.28
				c-1.46,0.79-3.2,1.19-5.21,1.19c-1.32,0-1.98,0-3.3,0c1.89,8.6,2.84,12.9,4.73,21.5C835.48,601.24,833.91,601.24,830.76,601.24z
				 M832.18,571.92c1.12,0,1.68,0,2.79,0c1.02,0,1.75-0.25,2.17-0.75c0.42-0.5,0.62-1.25,0.58-2.25c-0.04-1-0.21-2.27-0.54-3.81
				c-0.27-1.29-0.58-2.43-0.92-3.41c-0.35-0.98-0.85-1.76-1.51-2.34c-0.66-0.58-1.57-0.87-2.71-0.87c-1.13,0-1.69,0-2.82,0
				C830.4,563.86,830.99,566.55,832.18,571.92z"/>
			<path class="st5" d="M859.06,601.24c-2.52-14.1-5.04-28.21-7.56-42.31c-2.33,0-3.49,0-5.82,0c-0.63-3.33-0.94-4.99-1.58-8.32
				c8.19,0,12.29,0,20.48,0c0.5,3.33,0.76,4.99,1.26,8.32c-2.31,0-3.46,0-5.77,0c2.3,14.1,4.59,28.2,6.89,42.31
				C863.8,601.24,862.22,601.24,859.06,601.24z"/>
			<path class="st5" d="M885.34,601.98c-2.66,0-4.86-0.67-6.6-2c-1.74-1.33-3.14-3.25-4.18-5.75c-1.05-2.5-1.83-5.48-2.34-8.94
				c-1.11-7.52-1.66-11.29-2.77-18.81c-0.52-3.5-0.59-6.48-0.22-8.94c0.38-2.46,1.32-4.34,2.85-5.66c1.53-1.31,3.77-1.97,6.71-1.97
				c2.97,0,5.4,0.66,7.28,1.97c1.87,1.31,3.3,3.2,4.3,5.66c0.99,2.46,1.67,5.44,2.03,8.94c0.78,7.53,1.18,11.29,1.96,18.81
				c0.36,3.46,0.33,6.44-0.09,8.94c-0.42,2.5-1.34,4.41-2.76,5.75C890.07,601.32,888.02,601.98,885.34,601.98z M884.34,594.05
				c0.83,0,1.4-0.29,1.72-0.88c0.31-0.58,0.48-1.34,0.48-2.25c0.01-0.92-0.04-1.85-0.16-2.81c-1.17-9.75-1.76-14.62-2.94-24.37
				c-0.12-1-0.3-1.95-0.53-2.85c-0.24-0.9-0.59-1.63-1.08-2.22c-0.49-0.58-1.17-0.88-2.07-0.88c-0.83,0-1.41,0.29-1.75,0.88
				c-0.34,0.58-0.51,1.32-0.52,2.22c-0.01,0.9,0.05,1.85,0.18,2.85c1.28,9.75,1.92,14.62,3.2,24.37c0.13,0.96,0.3,1.89,0.53,2.81
				c0.22,0.92,0.56,1.67,1.01,2.25C882.87,593.76,883.5,594.05,884.34,594.05z"/>
			<path class="st5" d="M903.65,601.24c-1.25-14.1-2.5-28.21-3.75-42.31c-2.33,0-3.49,0-5.82,0c-0.33-3.33-0.5-4.99-0.83-8.32
				c8.19,0,12.29,0,20.48,0c0.21,3.33,0.31,4.99,0.52,8.32c-2.31,0-3.46,0-5.77,0c1.03,14.1,2.05,28.2,3.08,42.31
				C908.39,601.24,906.81,601.24,903.65,601.24z"/>
			<path class="st5" d="M920.04,601.24c-0.94-16.88-1.88-33.75-2.82-50.62c3.47,0,5.2,0,8.67,0c0.67,16.87,1.34,33.75,2.01,50.62
				C924.75,601.24,923.18,601.24,920.04,601.24z"/>
			<path class="st5" d="M931.5,601.24c1.7-16.92,3.62-33.8,5.76-50.62c3.95,0,5.93,0,9.88,0c2.44,16.82,4.67,33.7,6.68,50.62
				c-2.9,0-4.35,0-7.25,0c-0.48-4.28-0.73-6.41-1.23-10.69c-2.14,0-3.21,0-5.34,0c-0.44,4.28-0.65,6.41-1.07,10.69
				C935.96,601.24,934.47,601.24,931.5,601.24z M940.62,583.86c1.56,0,2.35,0,3.91,0c-0.83-7.9-1.26-11.85-2.15-19.75
				C941.65,572.01,941.3,575.96,940.62,583.86z"/>
			<path class="st5" d="M957.07,601.24c0.32-16.88,0.65-33.75,0.97-50.62c2.44,0,3.66,0,6.1,0c2.92,9.75,4.31,14.62,6.94,24.37
				c0.44-9.75,0.66-14.62,1.1-24.37c2.87,0,4.3,0,7.17,0c-0.98,16.87-1.96,33.75-2.94,50.62c-2.13,0-3.19,0-5.31,0
				c-2.42-10.5-3.71-15.75-6.44-26.25c-0.34,10.5-0.52,15.75-0.86,26.25C961.1,601.24,959.76,601.24,957.07,601.24z"/>
			<path class="st5" d="M990.92,601.98c-2.46,0-4.33-0.73-5.64-2.19c-1.31-1.46-2.19-3.51-2.61-6.16c-0.42-2.64-0.53-5.7-0.29-9.16
				c0.46-6.8,0.69-10.2,1.16-17c0.24-3.58,0.8-6.69,1.68-9.31c0.88-2.62,2.24-4.66,4.08-6.09c1.83-1.44,4.24-2.16,7.22-2.16
				c2.91,0,5.14,0.62,6.67,1.87c1.53,1.25,2.52,2.98,2.99,5.19c0.46,2.21,0.52,4.79,0.19,7.75c-0.14,1.3-0.21,1.95-0.36,3.25
				c-3.28,0-4.92,0-8.2,0c0.16-1.65,0.23-2.48,0.39-4.13c0.1-1.09,0.14-2.08,0.12-3c-0.03-0.92-0.21-1.65-0.55-2.22
				c-0.34-0.56-0.97-0.85-1.86-0.85c-0.92,0-1.62,0.32-2.09,0.97c-0.47,0.65-0.8,1.45-0.99,2.4c-0.19,0.96-0.33,1.96-0.42,3
				c-0.79,9.37-1.18,14.06-1.97,23.44c-0.09,1.13-0.1,2.18-0.02,3.16c0.08,0.98,0.31,1.77,0.69,2.38c0.38,0.6,0.96,0.91,1.77,0.91
				c0.83,0,1.5-0.32,2-0.94c0.5-0.62,0.9-1.44,1.17-2.44c0.27-1,0.47-2.06,0.58-3.19c0.23-2.38,0.34-3.56,0.57-5.94
				c-1.33,0-2,0-3.33,0c0.24-2.62,0.36-3.94,0.59-6.56c4.33,0,6.5,0,10.83,0c-1.16,10.5-1.74,15.75-2.9,26.25c-2.07,0-3.11,0-5.18,0
				c-0.01-1.67-0.01-2.51-0.02-4.19c-0.62,1.42-1.42,2.59-2.42,3.53C993.74,601.51,992.47,601.98,990.92,601.98z"/>
			<path class="st5" d="M1017.46,601.98c-2.72,0-4.76-0.64-6.13-1.91c-1.38-1.27-2.23-3.12-2.56-5.56
				c-0.33-2.44-0.29-5.43,0.14-8.97c1.68-13.97,2.51-20.96,4.19-34.94c3.43,0,5.14,0,8.57,0c-1.99,14.65-2.98,21.97-4.97,36.62
				c-0.14,1.04-0.22,2.08-0.24,3.12c-0.02,1.04,0.12,1.9,0.43,2.56c0.31,0.67,0.88,1,1.72,1c0.86,0,1.54-0.34,2.02-1
				c0.48-0.67,0.85-1.52,1.11-2.56c0.26-1.04,0.46-2.08,0.61-3.12c1.79-12.21,3.58-24.42,5.38-36.62c3.45,0,5.17,0,8.62,0
				c-2.27,13.98-3.41,20.96-5.68,34.94c-0.58,3.54-1.38,6.53-2.41,8.97c-1.03,2.44-2.41,4.29-4.13,5.56
				C1022.39,601.35,1020.18,601.98,1017.46,601.98z"/>
			<path class="st5" d="M1033.17,601.24c2.92-16.88,5.83-33.75,8.75-50.62c3.47,0,5.2,0,8.67,0c-3.18,16.87-6.36,33.75-9.55,50.62
				C1037.88,601.24,1036.31,601.24,1033.17,601.24z"/>
			<path class="st5" d="M1055.63,601.98c-2.22,0-3.96-0.57-5.22-1.69c-1.26-1.13-2.04-2.86-2.34-5.22c-0.3-2.35-0.13-5.41,0.52-9.16
				c2.89-0.57,4.33-0.86,7.24-1.44c-0.43,2.17-0.65,3.92-0.68,5.25c-0.03,1.33,0.13,2.29,0.46,2.87c0.34,0.58,0.83,0.88,1.49,0.88
				c0.83,0,1.46-0.4,1.89-1.19c0.43-0.79,0.74-1.62,0.94-2.5c0.46-2.08,0.49-3.85,0.08-5.28c-0.41-1.44-1.08-2.88-2.02-4.34
				c-0.96-1.53-1.44-2.29-2.42-3.81c-1.08-1.62-1.9-3.47-2.47-5.53c-0.57-2.06-0.56-4.61,0.05-7.65c0.85-4.29,2.46-7.58,4.89-9.85
				c2.42-2.27,5.35-3.41,8.74-3.41c2.1,0,3.69,0.46,4.75,1.37c1.06,0.92,1.75,2.12,2.07,3.6c0.31,1.48,0.39,3.04,0.24,4.69
				c-0.15,1.65-0.38,3.22-0.71,4.72c-3.02,0.48-4.53,0.71-7.54,1.19c0.3-1.5,0.52-2.8,0.66-3.91c0.14-1.1,0.1-1.96-0.12-2.56
				c-0.21-0.6-0.7-0.91-1.43-0.91c-0.8,0-1.47,0.44-2.02,1.31c-0.55,0.88-0.92,1.75-1.11,2.62c-0.4,1.88-0.39,3.41,0.03,4.59
				c0.42,1.19,1.03,2.43,1.84,3.72c0.93,1.48,1.38,2.21,2.29,3.69c1.21,1.88,2.1,4,2.66,6.38c0.56,2.38,0.41,5.31-0.42,8.81
				c-0.56,2.38-1.46,4.53-2.69,6.47c-1.23,1.94-2.67,3.47-4.32,4.59C1059.29,601.42,1057.53,601.98,1055.63,601.98z"/>
			<path class="st5" d="M1067.61,601.24c0.93-3.85,1.4-5.78,2.33-9.63c2.76,0,4.14,0,6.9,0c-0.99,3.85-1.48,5.78-2.47,9.63
				C1071.67,601.24,1070.31,601.24,1067.61,601.24z"/>
			<path class="st5" d="M1078.81,601.24c4.68-16.89,9.37-33.76,14.09-50.62c3.72,0,5.58,0,9.3,0c-1.61,11.78-2.47,17.66-4.26,29.44
				c5.19-11.78,7.83-17.66,13.22-29.44c3.58,0,5.38,0,8.96,0c-5.11,16.88-10.24,33.76-15.38,50.62c-2.23,0-3.35,0-5.58,0
				c3.86-13.47,5.78-20.21,9.6-33.69c-4.87,11.17-9.67,22.4-14.39,33.69c-1.99,0-2.98,0-4.96,0c2.13-13.58,3.13-20.36,5.02-33.94
				c-3.99,13.57-5.98,20.36-9.94,33.94C1082.21,601.24,1081.08,601.24,1078.81,601.24z"/>
			<path class="st5" d="M1107.02,601.24c6.27-10.9,9.48-16.35,16.04-27.25c0.36-9.35,0.48-14.02,0.59-23.38c3.28,0,4.91,0,8.18,0
				c-0.12,5.47-0.21,8.21-0.42,13.69c3.25-5.47,4.89-8.21,8.21-13.69c2.89,0,4.33,0,7.22,0c-6.59,10.53-9.82,15.79-16.15,26.31
				c-0.51,9.72-0.84,14.59-1.63,24.32c-2.95,0-4.43,0-7.38,0c0.39-6.05,0.55-9.08,0.83-15.13c-3.65,6.05-5.45,9.08-9.01,15.13
				C1110.92,601.24,1109.62,601.24,1107.02,601.24z"/>
		</g>
	</g>
	<g class="st10">
		<g class="st11">
			<path class="st12" d="M837.88,749.33c-5.54,0-10.5-1.2-15.05-3.6c-4.54-2.4-8.74-5.76-12.57-10.1
				c-3.83-4.33-7.46-9.44-10.8-15.32c-7.13-12.55-10.69-18.83-17.82-31.38c-3.42-6.02-5.51-11.19-6.19-15.53
				c-0.67-4.33,0.54-7.68,3.69-10.05c3.14-2.37,8.61-3.55,16.26-3.55c7.48,0,13.81,1.06,18.85,3.17c5.04,2.11,9.14,5.07,12.31,8.87
				c3.17,3.8,5.67,8.17,7.57,13.11c1.16,3.01,1.74,4.51,2.89,7.52c-7.85,0-11.77,0-19.62,0c-1.57-3.48-2.36-5.22-3.93-8.7
				c-0.78-1.72-1.62-3.37-2.53-4.94c-0.91-1.57-2.07-2.88-3.5-3.92c-1.43-1.04-3.31-1.56-5.62-1.56c-2.23,0-3.62,0.54-4.17,1.61
				c-0.54,1.07-0.55,2.42-0.02,4.03c0.53,1.61,1.24,3.32,2.13,5.1c6.8,13.65,13.6,27.3,20.4,40.95c0.96,1.94,2,3.71,3.09,5.32
				c1.09,1.61,2.31,2.9,3.65,3.87s2.83,1.45,4.48,1.45c1.78,0,2.81-0.52,3.1-1.56c0.29-1.04,0.17-2.38-0.39-4.03
				c-0.55-1.65-1.21-3.33-1.99-5.05c-1.65-3.65-2.48-5.48-4.13-9.13c7.22,0,10.83,0,18.05,0c1.16,3.01,1.74,4.51,2.9,7.52
				c1.9,4.94,2.92,9.37,3.16,13.27c0.23,3.91-0.74,6.98-2.87,9.24C847.1,748.2,843.35,749.33,837.88,749.33z"/>
			<path class="st12" d="M867.31,748.04c-10.08-29.02-20.15-58.04-30.24-87.05c11.08,0,16.62,0,27.7,0c6.79,0,12.83,0.65,18.04,1.94
				c5.2,1.29,9.46,3.6,12.73,6.93c3.27,3.33,5.32,8.04,6.28,14.13c0.57,3.58,0.76,6.77,0.62,9.56c-0.14,2.79-0.84,5.21-2.04,7.26
				c-1.21,2.04-3.11,3.75-5.7,5.1c6.46,13.94,12.55,27.9,18.35,42.13c-6.72,0-10.08,0-16.79,0c-5.7-13.19-11.88-26.11-18.18-39.01
				c-2.16,0-3.23,0-5.39,0c3.62,13,7.24,26.01,10.87,39.01C877.06,748.04,873.81,748.04,867.31,748.04z M869.61,697.96
				c2.2,0,3.3,0,5.5,0c2.79,0,4.83-0.48,6.15-1.45c1.32-0.97,2.09-2.37,2.32-4.19c0.22-1.83,0.06-4.03-0.51-6.61
				c-0.83-3.73-2.21-6.63-4.18-8.71c-1.97-2.08-5.01-3.12-9.06-3.12c-2.77,0-4.15,0-6.92,0
				C865.59,683.51,866.93,688.33,869.61,697.96z"/>
			<path class="st12" d="M921.5,748.04c-3.42-29.02-6.84-58.04-10.27-87.05c8.89,0,13.34,0,22.23,0
				c1.43,29.02,2.85,58.04,4.28,87.05C931.25,748.04,928,748.04,921.5,748.04z"/>
			<path class="st12" d="M948.73,748.04c-0.08-29.02-0.16-58.04-0.23-87.05c13.52,0,20.27,0,33.79,0c6.04,0,10.91,0.99,14.47,2.96
				c3.56,1.97,5.93,4.84,7.11,8.6c1.18,3.76,1.23,8.33,0.24,13.7c-1.24,6.73-3.35,11.88-6.2,15.42c-2.85,3.55-6.22,6-10.15,7.36
				c-3.93,1.36-8.16,2.04-12.78,2.04c-3.02,0-4.54,0-7.56,0c-0.98,14.79-1.47,22.18-2.44,36.97
				C958.48,748.04,955.23,748.04,948.73,748.04z M968.31,697.63c2.64,0,3.96,0,6.61,0c2.42,0,4.3-0.43,5.65-1.29
				c1.35-0.86,2.33-2.15,2.94-3.87c0.61-1.72,1.08-3.9,1.4-6.56c0.26-2.22,0.32-4.17,0.17-5.86c-0.15-1.68-0.84-3.03-2.07-4.03
				c-1.23-1-3.29-1.5-6.14-1.5c-2.81,0-4.22,0-7.03,0C969.23,683.77,968.92,688.39,968.31,697.63z"/>
			<path class="st12" d="M1007.19,748.04c5.94-24.25,11.87-48.51,17.81-72.76c-5.79,0-8.69,0-14.49,0c1.13-5.72,1.7-8.58,2.83-14.29
				c17.51,0,35.03,0,52.54,0c-2.06,5.72-3.09,8.58-5.15,14.29c-5.75,0-8.62,0-14.37,0c-7.62,24.25-15.23,48.51-22.84,72.76
				C1016.99,748.04,1013.72,748.04,1007.19,748.04z"/>
			<path class="st12" d="M1060.68,749.33c-5.48,0-9.29-1.15-11.56-3.44c-2.28-2.29-3.32-5.59-3.11-9.89
				c0.21-4.3,1.39-9.42,3.65-15.37c4.92-12.94,7.38-19.41,12.3-32.35c2.29-6.02,5.11-11.14,8.59-15.37
				c3.48-4.23,7.86-7.47,13.16-9.73c5.3-2.26,11.81-3.39,19.37-3.39c7.65,0,13.14,1.13,16.35,3.39c3.2,2.26,4.53,5.5,4,9.73
				c-0.53,4.23-2.55,9.35-5.97,15.37c-7.35,12.94-11.02,19.41-18.37,32.35c-3.38,5.95-7.06,11.07-10.92,15.37
				c-3.87,4.3-8.05,7.59-12.53,9.89C1071.16,748.18,1066.22,749.33,1060.68,749.33z M1067.14,735.68c1.78,0,3.33-0.5,4.66-1.5
				c1.32-1,2.51-2.29,3.56-3.87c1.04-1.57,1.97-3.19,2.79-4.84c6.95-13.97,13.9-27.95,20.85-41.92c0.86-1.72,1.51-3.35,1.96-4.89
				c0.45-1.54,0.41-2.81-0.13-3.82c-0.54-1-1.93-1.5-4.16-1.5c-2.07,0-3.86,0.5-5.35,1.5c-1.49,1-2.74,2.28-3.75,3.82
				c-1.01,1.54-1.9,3.17-2.67,4.89c-6.3,13.97-12.59,27.94-18.89,41.92c-0.74,1.65-1.35,3.26-1.84,4.84
				c-0.48,1.58-0.55,2.87-0.21,3.87C1064.31,735.18,1065.36,735.68,1067.14,735.68z"/>
		</g>
	</g>
</g>
</svg>
